<mxfile host="app.diagrams.net" modified="2021-05-30T09:16:18.162Z" agent="5.0 (Windows NT 10.0; Win64; x64) AppleWebKit/537.36 (KHTML, like Gecko) Chrome/91.0.4472.77 Safari/537.36 Edg/91.0.864.37" etag="hUTJmV6wqrb-oQkYYNSn" version="14.7.2" type="github">
  <diagram id="kR_ZwF1k02ZWBEDxo8ZE" name="Page-1">
    <mxGraphModel dx="2046" dy="550" grid="0" gridSize="10" guides="1" tooltips="1" connect="1" arrows="1" fold="1" page="1" pageScale="1" pageWidth="827" pageHeight="1169" math="0" shadow="0">
      <root>
        <mxCell id="0" />
        <mxCell id="1" parent="0" />
        <mxCell id="KjAqN9CNKyvdz0GDKxtC-3" value="" style="shape=image;verticalLabelPosition=bottom;labelBackgroundColor=#ffffff;verticalAlign=top;aspect=fixed;imageAspect=0;image=data:image/jpeg,/9j/4AAQSkZJRgABAQIAHAAcAAD/2wBDAAgGBgcGBQgHBwcJCQgKDBQNDAsLDBkSEw8UHRofHh0aHBwgJC4nICIsIxwcKDcpLDAxNDQ0Hyc5PTgyPC4zNDL/2wBDAQkJCQwLDBgNDRgyIRwhMjIyMjIyMjIyMjIyMjIyMjIyMjIyMjIyMjIyMjIyMjIyMjIyMjIyMjIyMjIyMjIyMjL/wAARCAOGB9ADASIAAhEBAxEB/8QAHAABAQACAwEBAAAAAAAAAAAAAAEGBwIEBQMI/8QARhABAAIBAwEFBQQHBwIFAwUAAAECAwQFEQYhMUFRYRITIjJxB3Ox0SM0NoGRocEUNUJSYnKCQ1Mkg+Hw8RUzohYlY5LS/8QAGwEBAAIDAQEAAAAAAAAAAAAAAAUGAQMEAgf/xAAyEQEAAgECBAMHAwUBAQEAAAAAAQIDBBEFEiExUYHBIjJBQnGx0TM0oRMjYZHh8PFD/9oADAMBAAIRAxEAPwDf4AAAAAAAAAAAAAAAAAAAAAAAAAAAAAAAAAAAAAAAAAAAAAAAAAAAAAAAAAAAAAAAAAAAAAAAAAAAAAAAAAAAAAAAAAAAAAAAAAAAAAAAAAAAAAAAAAAAAAAAAAAAAAAAAAAAAAAAAAAAAAAAAAAAAAAAAAAAAAAAAAAAAAAAAAAAAAAAAAAAAAAAAAAAAAAAAAAAAAAAAAAAAAAAAAAAAAAAAAAAAAAAAAAAAAAAAAAAAAAAAAAAAAAAAAAAAAAAAAAAAAAAAAAAAAAAAAAAAAAAAAAAAAAAAAAAAAAAAAAAAAAAAAAAAAAAAAAAAAAAAAAAAAAAAAAAAAAAAAAAAAAAAAAAAAAAAAAAAAAAAAAAAAAAAAAAAAAAAAAAAAAAAAAAAAAAAAAAAAAAAAAAAAAAAAAAAAAAAAAAAAAAAAAAAAAAAAAAAAAAAAAAAAAAAAAAAAAAAAAAAAAAAAAAAAAAAAAAAAAAAAAAAAAAAAAAAAAAAAAAAAAAAAAAAAAAAAAAAAAAAAAAAAAAAAAAAAAAAAAAAAAAAAAAAAAAAAAAAAAAAAAAAAAAAAAAAAAAAAAAAAAAAAAAAAAAAAAAAAAAAAAAAAAAAAAAAAAAAAAAAAAAAAAAAAAAAAAAAAAAAAAAAAAAAAAAAAAAAAAAAAAAAAAAAAAAAAAAAAAAAAAAAAAAAAAAAAAAAAAAAAAAAAAAAAAAAAAAAAAAAAAAAAAAAAAAAAAAAAAAAAAAAAAAAAAAAAAAAAAAAAAAAAAAAAAAAAAAAAAAAAAAAAAAAAAAAAAAAAAAAAAAAAAAAAAAAAAAAAAAAAAAAAAAAAAAAAAAAAAAAAAAAAAAAAAAAAAAAAAAAAAAAAAAAMb6r6w0fTGmitojNrckc48ET/O3lH4vdKWyW5axvLxkyVx1m952h72q1en0WCc2pzUxY477Wnhhm5/aRocNrY9DFLzH/Uy24j+Edv4NV7z1BuW/aq2fXam1v8uOvZSseUQ8pNYOG0rG+TrP8K7qeLZbzti9mP5bJzda7jrbfDuVKRP+HFxX/wBXVtuWvvPN9bqLT65bfm1+7Om3HU6SY9jJM1/yW7Yd9cWOvu1iEVe+W/W15nzZ1i3jcsFucev1ET95Mw9bSda7tp5iMtseor5XrxP8YYhodwxa6nw/Dkj5qT4O2X0+K/vVhimqz4p9m0x5tmbZ1jt2umKZ5nS5Z7OMk/DP/L8+GQ1tFqxasxMT2xMeLST09s37cNqmI0+efdc9uK/bWf3eH7kdn4XE9cU+SX03G7R7OeN/8x+G2xjG19a6HWezj1kf2XLPjM80n9/h+9k1L1yUi9LRasxzExPMSicuG+KdrxsnsOoxZ682Od1Aam4AAAAAAAAAAAAAAAAAAAAAAAAAAAAAAAAAAAAAAAAAAAAAAAAAAAAAAAAAAAAAAAAAAAAAAAAAAAAAAAAAAAAAAAAAAAAAAAAAAAAAAAAAAAAAAAAAAAAAAAAAAAAAAAAAAAAAAAAAAAAAAAAAAAAAAAAAAAAAAAAAAAAAAAAAAAAAAAAAAAAAAAAAAAAAAAAAAAAAAAAAAAAAAAAAAAAAAAAAAAAAAAAAAAAAAAAAABgvW3XuPZq32/bL1ybhPZe/fXD+dvTw8WzFivlty0hpz56Yac956O31l1vp+ncNtLpprm3K9fhp3xi9bf0hpTWazUbhq8mq1ea2XPknm17T2y4Zs2XUZr5s2S2TLeZta9p5mZ85fNYtNpaYK7R38VV1esvqbbz0j4QJKpLqciOMrKDLnhzX0+WuXHbi1Z7JZdpdRXV6aman+KO2PKfGGGy9rp7PPtZsEz2ce3H4SzDzkrvG73gGXOO/t286/ar86XUWrXnmcc9tZ/c6A82rW0bWjeHul7UnmpO0thbX1xpNRxj19P7Pk/z15mk/1hlOLLjz465MWSuSlu2LVnmJaUdzQbrrdsye3pNRbH5176z9Y7kZn4XW3XFOya03G719nNG8eMd24hh+19dYM3GPccXub/8AcxxM1n6x3x/NleDUYdVijLgy0yY57rUnmERlwZMU7XhP4NVizxvjtu+oDS6AAAAAAAAAAAAAAAAAAAAAAAAAAAAAAAAAAAAAAAAAAAAAAAAAAAAAAAAAAAAAAAAAAAAAAAAAAAAAAAAAAAAAAAAAAAAAAAAAAAAAAAAAAAAAAAAAAAAAAAAAAAAAAAAAAAAAAAAAAAAAAAAAAAAAAAAAAAAAAAAAAAAAAAAAAAAAAAAAAAAAAAAAAAAAAAAAAAAAAAAAAAAAAAAAAAAAAAAAAAAAAAAAAAAASZisTMzERHbMy1X1v9oM5vebXsubjF8ubVUntt51rPl6t2DBfNblq59TqaaenNf/AOu91v8AaDXSe82zZcsWz9tc2pr2xT0r6+vh+Gp7Wm9ptaZm0zzMzPbMoLHgwUw15aqnqdVfUX5r/wCvARUbnOS4rKMspKLLjI9I9LYZ/wD3Pjzx2ebL0dh/vOPu7Bb3ZZQIPTkUQBRAFdnRbjq9uze90me+K3jxPZP1jul1RiaxaNpeq2ms71naWd7Z13S3s49yw+xPd73FHMfvj8mXabV6fW4YzabNTLjn/FSeWln30mt1OhzRl0ua+K8eNZRufhmO/XH0n+EzpuNZadMsc0fy3QMH2rryY9nHueHn/wDmxR+Nfy/gy/R6/S7hi97pc9Mtf9M9sfWPBD5tNlwz7cJ/T6zDqI/t26+HxdkBodQAAAAAAAAAAAAAAAAAAAAAAAAAAAAAAAAAAAAAAAAAAAAAAAAAAAAAAAAAAAAAAAAAAAAAAAAAAAAAAAAAAAAAAAAAAAAAAAAAAAAAAAAAAAAAAAAAAAAAAAAAAAAAAAAAAAAAAAAAAAAAAAAAAAAAAAAAAAAAAAAAAAAAAAAAAAAAAAAAAAAAAAAAAAAAAAAAAAAAAAAAAAAAAAAAAAAAAAAAAAAAA4ZcuPBivly3rTHSJta1p4iI85cNVqsGi02TU6nLXFhxx7V73niIhpbrPrnP1Dkto9HNsO21t2R3Wy8eNvT0dOm0189to7eLk1esppq7z3+EO51v19k3a2TbdqvNNB8uTLHZbN+VfxYEgsWLFTFXloqmfPfPfnvKiDY0gAJKLKMvTikqkjMOMvS2H+84+7s82XpbD/ekfd2C3uyycB6cgAAAAAAAA+un1WfSZoy6fNfFkjutSeJfIYmImNpZiZid4ZltfXebH7OPcsXva/8AdxxEWj93dP8AJmWh3PR7li95pNRTLHjET2x9Y74abfTDmy6fJGTDkvjvXutS3Ewjs/Dcd+tOk/wl9NxnNj6ZPaj+W6xr7a+utTg4x7hj9/T/ALley8f0n+TM9u3jQ7pT2tJnreeO2k9lo/ciM2ky4fejp4rBptdg1HuT18J7u8A5nYAAAAAAAAAAAAAAAAAAAAAAAAAAAAAAAAAAAAAAAAAAAAAAAAAAAAAAAAAAAAAAAAAAAAAAAAAAAAAAAAAAAAAAAAAAAAAAAAAAAAAAAAAAAAAAAAAAAAAAAAAAAAAAAAAAAAAAAAAAAAAAAAAAAAAAAAAAAAAAAAAAAAAAAAAAAAAAAAAAAAAAAAAAAAAAAAAAAAAAAAAAAAAAAAAAAAAAAAOruO46TatDk1mtzVxYMcdtp8fSPOfR8d53rRbFt99ZrssUpHZWsfNefKI8ZaL6n6p1vU2u97nn3enpM+5wVnspHnPnPq7NLpLZ53npVwa3XU01do628Py7XV3WWr6m1Pu45w6DHbnHhie//Vbzn8GMAsGPHXHXlrHRVsmW+W03vO8gD21gAAAJKLKD04ykqkssw4y9LYf70j7uzzZejsP96R93YLe7LKAHpygAAAAAAAAAAADljyXw5IyY72pevbFqzxMOIEdOzKtr641ulmuPXV/tOL/N3Xj9/izTbd82/da/+GzxN+O3HbstH7vH9zUK1tNLRaszFonmJie2Efn4diyda9JSum4tnw9L+1H+e/8Atu4a22vrTX6L2ceqj+1YY/zTxeP3+P72abX1Dt27RFcGb2cv/aydlv8A1/ch8+jy4esxvHjCwabiODUdKztPhL1QHK7gAAAAAAAAAAAAAAAAAAAAAAAAAAAAAAAAAAAAAAAAAAAAAAAAAAAAAAAAAAAAAAAAAAAAAAAAAAAAAAAAAAAAAAAAAAAAAAAAAAAAAAAAAAAAAAAAAAAAAAAAAAAAAAAAAAAAAAAAAAAAAAAAAAAAAAAAAAAAAAAAAAAAAAAAAAAAAAAAAAAAAAAAAAAAAAAAAAAAAAAAAAAAAAAAAB5HUPUeh6b2+dTq7c3nsxYaz8WSfKPT1dbqrqzR9MaL28nGXV5I/Q6eJ7bes+UNGbtu+s3vcMmt12WcmW/dHhWPKI8Id+k0U5p5rdK/dGa7iFcEclOtvs++/wDUGu6i3G2r1l+yOzHir8uOvlH5vKBP1rFY5a9lYve17Ta07zIAy8gAAAAIMpIE9wy4y4y5OMsswkvR2H+9I+7s82e96Ww/3pH3dv6DNvdllAD05AAAAAAAAAAAAAAAABYmYmJiZiY7phAGQ7V1huO3zWma39qwR2ezkn4o+lvz5ZvtXUu3btxTFl93m/7WTsn93m1ORMxMTE8THi4c+gxZesdJ/wAJPTcVz4OkzzR/n8t3jAOnuscmntTS7necmHurmnttT6+cfzZ9S9clK3paLVtHMTE8xMILUae+C21lm0urx6mnNSfLwUBodQAAAAAAAAAAAAAAAAAAAAAAAAAAAAAAAAAAAAAAAAAAAAAAAAAAAAAAAAAAAAAAAAAAAAAAAAAAAAAAAAAAAAAAAAAAAAAAAAAAAAAAAAAAAAAAAAAAAAAAAAAAAAAAAAAAAAAAAAAAAAAAAAAAAAAAAAAAAAAAAAAAAAAAAAAAAAAAAAAAAAAAAAAAAAAAAAAAAAAAAAAAAAxXrDrTTdNYPc4vZz7jeOaYueykf5renp4up1p13h2GltDoJrl3G0ds99cPrPnPp/FpfUajNqtRkz6jJbLmyW9q97TzMyktHoZye3k7fdEa/iMYt8eL3vHw/wCvprtfqdy1uTV6zNbLnyTza1v/AH2Q64JyIiI2hW5mZneQBlgAAAAAARUGUSVSRlHGXJxll6hxelsP96R93Z5r0th/vSPu7Bb3ZZQIPTkUQBRAFEAUQBRAFEAUQBRAFEAUQBWXdHdRTpc1dt1d/wBBef0VrT8lvL6T+LEBqzYa5qTSzo02ovp8kZKN4Dxel92/+q7PS2S3OfD+jy+s+E/vj+r2lVyUnHaaW7wu+LJXLSL17SAPDYAAAAAAAAAAAAAAAAAAAAAAAAAAAAAAAAAAAAAAAAAAAAAAAAAAAAAAAAAAAAAAAAAAAAAAAAAAAAAAAAAAAAAAAAAAAAAAAAAAAAAAAAAAAAAAAAAAAAAAAAAAAAAAAAAAAAAAAAAAAAAAAAAAAAAAAAAAAAAAAAAAAAAAAAAAAAAAAAAAAAAAAAAAAAAAAAAAAAAAAANe9b/aBTboy7ZtGSL6z5cueO2MXpHnb8Pq6HXP2hdmXatly9vbXNqqz/GtJ/r/AAaumeZ5lLaPQb7ZMv8ApB6/iW2+LDP1n8OV72yXte9pta08zaZ5mZRBMoBRAFEAUQBRAFEAVBAElUkZRxWUZeocZejsP96R93Z50vR2H+9I+7sQW92WUAPTkAAAAAAAAAAAAAAAAAAAAAAZR0Nrp0+9Tppn4NRSY4/1R2x/LlshpnbdROk3PTZ4nj2MkT/NuZAcUx8uWLeMfZauCZebBNJ+E/cARiZAAAAAAAAAAAAAAAAAAAAAAAAAAAAAAAAAAAAAAAAAAAAAAAAAAAAAAAAAAAAAAAAAAAAAAAAAAAAAAAAAAAAAAAAAAAAAAAAAAAAAAAAAAAAAAAAAAAAAAAAAAAAAAAAAAAAAAAAAAAAAAAAAAAAAAAAAAAAAAAAAAAAAAAAAAAAAAAAAAAAAAAAAAAAAAAAAAAAAfPUajDpdPkz58lceLHWbXvaeIiDuTOzne9cdLXvaK1rHM2meIiGoet/tBtuPvNs2fJamk59nLnjsnL6R5V/H6On1r15l329tDt9r4tuieLT3WzfXyj0/iwhN6PQ8v9zJ38Fe1/EuffHhnp8Z8QBKIUAAAAAAAAAAAARUARXEZSUlZcZHqEl6Ow/3pH3dnnS9HYf70/8ALt/RmC3uyygQe3IogCiAKIAogCiAKIAogCiAKIAogCiALHZMfVvBo+O+G8ELxf5PP0WLgPbJ5eoAhlhAAAAAAAAAAAAAAAAAAAAAAAAAAAAAAAAAAAAAAAAAAAAAAAAAAAAAAAAAAAAAAAAAAAAAAAAAAAAAAAAAAAAAAAAAAAAAAAAAAAAAAAAAAAAAAAAAAAAAAAAAAAAAAAAAAAAAAAAAAAAAAAAAAAAAAAAAAAAAAAAAAAAAAAAAAAAAAAAAAAAAAAAAAAAAAAAAAAdHdt30WyaC+t12aMeKv8bT5RHjLMRMztDFrRWN57Prr9fpts0WTV6zNXFgxxza1v8A33tI9Y9a6nqXUTgw+3h22k/Bi57bz/mt+Xg6nVXVut6n1s2yTOLR0n9Dp4nsj1nzljyd0eijF7d/e+yta/iM5v7ePpX7/wDFEEiilEAUQBRAFEAUQBRAFEAVAGURZQZSXGXKXGRmHGXpbD/ekfd2/o82XpbD/en/AJdmYLe7LJwHtyAAAAAAAAAAAAAAAAAAAAAALHfH1bwaPjvj6t4IXi/yefosXAe2Ty9QBDLCAAAAAAAAAAAAAAAAAAAAAAAAAAAAAAAAAAAAAAAAAAAAAAAAAAAAAAAAAAAAAAAAAAAAAAAAAAAAAAAAAAAAAAAAAAAAAAAAAAAAAAAAAAAAAAAAAAAAAAAAAAAAAAAAAAAAAAAAAAAAAAAAAAAAAAAAAAAAAAAAAAAAAAAAAAAAAAAAAAAAAAAAAAAAAAAAA8LqfqnQ9MaH3uon3movE+5wVn4rz/SPV6pS17ctY6vF71x1m1p2iHY37qDQ9O7fbV63Jx4Y8dfmyW8oj+rRPUXUmu6k186jV34x1mfdYaz8OOPT19Xw3re9dv24W1muyze89lax8tI8ojwh5ywaTR1wxzT1srGu19tRPLXpX7/UAdqOAAAAAAAAAAAAAAAAABlJRZQZcZSVlJGYcZelsP8Aen/l2ebL0dh/vSPu7Mwzb3ZZQIPbjUQBRAFEAUQBRAFEAUQBRAFEAUQBRAFjvj6t4tHR3x9W8ULxf5PP0WLgPbJ5eoAhlhAAAAAAAAAAAAAAAAAAAAAAAAAAAAAAAAAAAAAAAAAAAAAAAAAAAAAAAAAAAAAAAAAAAAAAAAAAAAAAAAAAAAAAAAAAAAAAAAAAAAAAAAAAAAAAAAAAAAAAAAAAAAAAAAAAAAAAAAAAAAAAAAAAAAAAAAAAAAAAAAAAAAAAAAAAAAAAAAAAAAAAAAAAAAAAAYd1p1zp+nsNtJo7UzbnaOyvfXF629fKGzHjtkty1jq15c1MVJvedodvq7rLSdM6WaRNc24Xr+iwc93+q3lH4tG7luWr3fXZNZrc1sufJPbafCPKI8I9Hy1Wrz67VZNTqstsubJPtXvaeZmXxWHS6WuCvjPiq2s1l9Tbwr8IAHU4gAAAAAAAAAAAAAAAAAAEBAJGXGXGXJxkeoSXo7D/AHp/5dnnS9HYf70/8uzMdy3uyycB7cYAAAAAAAAAAAAAAAAAAAAACx3x9W8Wjo74+reKF4v8nn6LFwHtk8vUAQywgAAAAAAAAAAAAAAAAAAAAAAAAAAAAAAAAAAAAAAAAAAAAAAAAAAAAAAAAAAAAAAAAAAAAAAAAAAAAAAAAAAAAAAAAAAAAAAAAAAAAAAAAAAAAAAAAAAAAAAAAAAAAAAAAAAAAAAAAAAAAAAAAAAAAAAADxt76o2vYa8avPzmmOa4cfxXn93h+94PWPXFNpi+37bauTWzHF8nfGH87fg1RmzZNRmvmzZLZMl55ta08zMpTScOnLHPk6QhdfxaMM/08XW38QzncPtQ3DLa1dBpMOnp4Wyc3t/SHk26+6jtb2v7dEekYq8fgxjkS9dJgrG0VhX76/U3nebz9vszTR/aXveC8f2imn1NPGLU9mf4x+TNNj692nd71w5ZnR6m3ZFMsx7Np9Lfnw0vyctWXh+DJHSNp/w34OLanFPWeaP8/l+khqPpXr7PtfsaPcptn0ccRW/ffH+ceja2l1en12mpqNLmplw3jmt6TzEoHUaXJgttbt4rRpNbi1Vd6T1+MPsA53WAAAAAAAAAAAAAAAAAAAAAAAAAAA1n1x9of9nnJteyZonL21zams/L/prPn6+Dbhw3zW5atGo1FMFOe7vdcdf49orfbtqyVya+ezJkjtrh/O34NO5cuTPlvly3tfJeZta1p5mZnxlxmZtaZmZmZ7ZmfFFj0+npgrtXv4qrqtVfUX5rdvhAA3uYAAAAAAAAAAAAAAAAAAAARUBElUkZRxlycZHqHGe96Ww/3pH3dnmy9LYf70/8uzMdy3uyycB7cgAAAAAAAAAAAAAAAAAAAAACx3x9W8Wjo74+reKF4v8AJ5+iw8B7ZPL1AEMsIAAAAAAAAAAAAAAAAAAAAAAAAAAAAAAAAAAAAAAAAAAAAAAAAAAAAAAAAAAAAAAAAAAAAAAAAAAAAAAAAAAAAAAAAAAAAAAAAAAAAAAAAAAAAAAAAAAAAAAAAAAAAAAAAAAAAAAAAAAAAAAAAAAAACWtFaza0xERHMzPgCtd9ZdeRg95tm0ZInJ8uXU1n5fOK+vq6XWXXc6r3u2bTk4wfLl1FZ7b+cV9PXxa+TWh4f2yZY+kflXOJcV74sE/Wfx+VmZtMzMzMz2zMoCaV0AAAAezsHUuv6e1Pt6a/tYbT+kwWn4bR/SfV4w83pW9eW0bw948l8dovSdphvrYepNB1DpveaW/s5ax+kwWn4q/nHq9h+dNJrNRoNTTU6XNfDmpPNb0niW1+levdPu3saPcZpp9b3Vt3Uyz/SfRAavh1sXt4+tfstOg4tTNtTL0t/Es0ARiZAAAAAAAAAAAAAAAAAAAAAAEtaK1m1piKxHMzPdDjmzY9PhvmzZK48dI9q17TxER5zLTfW/X+TebZNt2y849vieL5I7LZvyr6eLo0+nvnttXt4ubVaqmnpzW7/CHd64+0OdV73a9ly8YO2ubU1ntv5xWfL18fx1sgsWHDTDXlqqufUXz357yog2tCiALyIApygC8iAKcoApygC8nKAKIAvJygC8iAKcoAvKCDIkqkgjjKyg9Q4y9HYf70j7uzz4ibWiIiZmeyIjxZttvRW4bZtH/ANc3D9B7XFMentHxzE+NvL6PM5K1mItPd7/p2vS01jtDkA3uEAAAAAAAAAAAAAAAAAAAAABY74+reLR0d8fVvFC8X+Tz9Fi4D2yeXqAIVYAAAAAAAAAAAAAAAAAAAAAAAAAAAAAAAAAAAAAAAAAAAAAAAAAAAAAAAAAAAAAAAAAAAAAAAAAAAAAAAAAAAAAAAAAAAAAAAAAAAAAAAAAAAAAAAAAAAAAAAAAAAAAAAAAAAAAAAAAAAAAAAAAAAHx1er0+h0uTU6rLXFhxxza9p7IZiJmdoYmYiN5c8uXHgxXy5b1pjpHNrWniIhqXrHrfJu9r6Db7Tj0ETxa/dbN+VfR0+restR1BmnT6f2sO30t8NPHJ62/Jiqe0XD4x7ZMvfw8FX4lxScu+LDPs/GfH/iiHKVQaicgKJycgonJyCiHIKIAzzpX7QM2g93ot2tbNpe6ubvvjj184/n+DaWn1GHV6emfT5a5cV45res8xMPzi9zp3qnX9O6jnDb3mmtP6TBefhn1jyn1Rer4dGT28XSfDxTmg4vbFtjzda+Pxj8t7jytj6g0G/wCk9/o8nxR8+K3Zek+sf1eqgbVtWeW0bSs9L1vWLVneJAHl6AAAAAAAAAAAAAAAAHx1er0+h0uTU6rNTDgxxze954iIfLc9z0m0aDJrddmriw447ZnvmfKI8Z9Gi+resdX1PquJicOhxz+iwRP/AOVvOfwdWl0ts8+EeLi1mtppq+NvhDt9Z9c6jqPNbS6X2sO20t8NO62X1t/SGHgsWPHXHXlrHRVsuW+W03vO8gD21gAAAAAAAAAAAAAAAAAAAAAAACKgyJKuIyku1t22azd9bTR6HT3zZ791ax3esz4R6vY6Y6O3HqfUfoa+50lZ4yam8fDHpHnPo3hsHTm3dOaKNPocXFp/+5lt23yT5zP9O5xarW1w+zHWyR0egvn9q3Sv/uzH+j/s80fT8U1mu9jVbj3xbj4MU/6fOfX8Hpdc/s3b72jJGN9c/s3b72iJwZbZNTW153ndManFTFpL1pG0bS1iILQpiiAKIAogCiAKIAogCiAKIAogCiAKIAsd8fVvJo2O+Pq3kheL/J5+ixcB7ZPL1AEKsAAAAAAAAAAAAAAAAAAAAAAAAAAAAAAAAAAAAAAAAAAAAAAAAAAAAAAAAAAAAAAAAAAAAAAAAAAAAAAAAAAAAAAAAAAAAAAAAAAAAAAAAAAAAAAAAAAAAAAAAAAAAAAAAAAAAAAAAAAAAAAAAAADr67W6fbtHl1eqyRjw4o5taf/AH3tKdUdV6vqPVfFzi0dJ/RYYn+dvOXt/aRv9tXuUbTgv/4fTcTl4/xZP/SP58sEWDh2kilYy2jrPb/Cq8W19sl5w0n2Y7/5kASiFAAAAAAAAAAAAAAdnQa/VbZq6arR5rYs1J7LVn+U+cNtdK9daXeoppNbNdPr+6OZ4rk+nlPo04RMxPMTxLm1Okx6iPa7+Lt0euy6W3s9Y8H6TGrelPtCyaX3ei3m1smHsrTUd9qf7vOPXv8Aq2dhz4tThpmw5K5MV45res8xMK3qNNkwW2vC26XV4tTXmpPl8YfQBodQAAAAAAAAAAAA83fN80XT+3X1muyezWOylI+bJbyiHX6k6m0PTO3zqNVb2stuYxYKz8WSf6R5y0Rv2/67qLcbazW5OfDHjj5cdfKIduk0ds081ulUfrdfXTxy162+zsdTdU67qfXe+1M+xgp2YsFZ+Gkf1n1eJygsFKVpHLWOisXva9ptad5lRB6eV5TkAU5QBeRAF5OUAXkQBRAF5OUAOVQA5VAF5OUAXkQBeTlAFOUAXlB2NDoNVuWrx6TR4L5s954rSkc//EMTMRG8sxEzO0Ov3zxHe2H0f9mubcPd6/eq3waWYi1MHdfJ9f8ALH8/oynpD7O9Lsnu9buUU1O4d9a8c0xT6ec+v8GcojVcQ39jF/v8J3R8M22vm/1+Xy02mwaPT00+mxUxYcccVpSOIiH1BEJuI2GN9c/s3b72jJGN9c/s3b72jo0n69Pq5dd+2v8ASWsAFsUcAAAAAAAAAAAAAAAAAAAAABY74+reTRsd8fVvJC8X+Tz9Fi4D2yeXqAIVYAAAAAAAAAAAAAAAAAAAAAAAAAAAAAAAAAAAAAAAAAAAAAAAAAAAAAAAAAAAAAAAAAAAAAAAAAAAAAAAAAAAAAAAAAAAAAAAAAAAAAAAAAAAAAAAAAAAAAAAAAAAAAAAAAAAAAAAAAAAAAAAAB89Rmrp9NlzW+XHSbz9Ijl9Hnb/AM//AKc3T2fm/smXj/8ApL1SN7RDze3LWZaC1Wovq9Xm1GSeb5bze0+szy+QLlEbdHz2Z3neQAAAAAAAAAAAAAAAAABkHTfVuu6dzRWkzm0lp5vgtPZ9a+UsfHjJjrkry3jeHvFlvitF6TtL9A7Nvmg33RxqNFmi3Hz457LUnymHpPzvt256vadZTVaLNbFlrPfHdMeUx4w270t1vpN+rXTaj2dPr/8AJM/Dk9az/RX9Xw+2H2qda/Za9BxWmo2pk6W/iWVgI5LAAAAAAAADHOrOr9H0vo+b8ZtZkj9Fp4ntn1nyh1es+t9N01gnT4PZzblkrzTH4Y4/zW/LxaP1ut1O46zJq9Xmtmz5J5te09spHR6Kcvt3937ovXcQjD/bx+99n13XdtZvW4ZNbrss5M15/dWPCIjwh0gTsRERtCt2tNp3nuADAAAAAAAAAAAAAAAAAAAAAAAAAAADP+kPs41G6+71271vp9FPFq4u6+WP6R/P8WvLmpirzXluw4L5rctIY7010nuPU2q9jS093p6zxk1F4+Gn5z6N39O9Mbd01pPc6PHzltEe9z3+e8/0j0enpNJp9Bpcem0uGmHDjjitKRxEPsgdTrL5p27R4LLpNBTTxv3t4/gAcbuAAGN9c/s3b72jJGNddfs3b72jo0n69Pq5dd+2v9JaxEFsUdRAFEAUQBRAFEAUQBRAFEOQUQBRAFEAco74+reTRkfNH1bzQvF/k8/RYuA9snl6gCFWAAAAAAAAAAAAAAAAAAAAAAAAAAAAAAAAAAAAAAAAAAAAAAAAAAAAAAAAAAAAAAAAAAAAAAAAAAAAAAAAAAAAAAAAAAAAAAAAAAAAAAAAAAAAAAAAAAAAAAAAAAAAAAAAAAAAAAAAAAAAAAAAAfLU4Y1GlzYLfLkpNJ+kxw+oROzExvG0vzjqMF9LqcunyRxfFeaWj1ieHyZv9o+w20O7RumGv/h9XPx8f4cnj/Hv/iwhb8GWMuOLx8VD1OCcGW2OfgANrQAAAAAAAAAAAAAAAAAALEzW0WrMxMdsTCANi9K/aJbF7Gi3u02p3U1XjH+7z+rZmPJTLjrkx3relo5ras8xMekvzcyTpnrHXdPZIxzM59FM/FhtPd61nwlE6vhsW9vF0nwTug4vNNsefrHj+W7x0Np3nQ73o41OhzRev+Kv+Kk+Ux4O+grVms7T3WWtotHNWd4AGHoAAYL1v19i2Kt9v261cu4zHFrd9cH187en8XR65+0Sug97tWzZItqvly6is8xi84r529fD6tQ2va97XvabWtPM2meZmUro9Dzf3MnbwQ2v4jyb48U9fjL6Z8+XU5758+S2TLkn2rXvPM2n1cHFU0gJ6qIowAAAAAAAAAAAAAAAAAAAAAAAAAAPtpNJqNdqsem0uG+bNknitKRzMvT6d6Y3HqXV+50ePjFWf0me8fBSP6z6N39N9J7d0zpfY0tPeai0fpNRePit+UekOPU6ymGNu8u/SaC+oneelfH8Me6P+zjT7T7Gu3aKajW99cXfTF+c/wAvxZ8CAy5b5bc15WXDgphry0gAa20AAAAY111+zdvvaMlY111+zdvvaOjSfr0+rl137a/0lrABbFHAAAAAAAAAAAAAAAAAAAAAAWPmj6t5tGR80fVvNC8X+Tz9Fi4D2yeXqAIVYAAAAAAAAAAAAAAAAAAAAAAAAAAAAAAAAAAAAAAAAAAAAAAAAAAAAAAAAAAAAAAAAAAAAAAAAAAAAAAAAAAAAAAAAAAAAAAAAAAAAAAAAAAAAAAAAAAAAAAAAAAAAAAAAAAAAAAAAAAAAAAAAAAHV3Hb9Numgy6LV4/bw5Y4mPGPWPWGkupumNZ05rZpkicmlvP6LPEdlo8p8p9G93W12g025aPJpNXirlw5I4tWfxjyl2aTWW09vGso/X6Cmqr4WjtL86DJeq+kNT07qPeY/azaC8/Bl4+X/Tb1/FjSy48lclYtSd4VDLivhvNLxtMAD21AAAAAAAAAAAAAAAAAAAAO7te7a3ZtZXVaHPbHkjvjwtHlMeMNwdMdaaLqCkYcns6fXRHbimey/rWfH6d7STlS9sd63paa3rPMWrPExLk1WjpqI69J8Xfo9fk0s9OtfB+khrbpX7RefY0W939Kar//AH+f/wAtjTmxVwTnnJSMUV9ub+18Ps9/PPkrufT5MNuW8LbptVi1FOfHP/HOZiI5meIhqjrv7Rvb97tOx5pivM1zauk9/nWk/wBf4ebzuuvtFvus5Ns2fJami7a5c8dk5vSPKv4tecpLR6Hb+5ljyReu4hvvjxT9Z/DlyvLjyqWQrkOK8jDkIcjDkIDCiAKIAogCiAKIAogCiAKIAogCiAKI+un0+fV6imn0+K+XNknitKRzMyxvszEb9IfNnPSH2d6re/Y1u5RfTaDvrXuvlj08o9f4Mo6P+zXDt/u9fvdaZ9VHxU0/fTH9f80/y+rYncidVxD5MX+/wm9Hwvf283+vy6+h0Gl23SY9Lo8FMOCkcVpSOz/1n1dgERMzM7ynIiIjaABhkAAAAAAY111+zdvvaMlY111+zdvvaOjSfr0+rl137a/0lrABbFIAAAAAAAAAAAAAAAAAAAAAAWPmj6t5tGR3x9W80Lxf5PP0WHgXbJ5eoAhVgAAAAAAAAAAAAAAAAAAAAAAAAAAAAAAAAAAAAAAAAAAAAAAAAAAAAAAAAAAAAAAAAAAAAAAAAAAAAAAAAAAAAAAAAAAAAAAAAAAAAAAAAAAAAAAAAAAAAAAAAAAAAAAAAAAAAAAAAAAAAAAAAAAAAfPUafDqtPkwZ8dcmLJX2b0tHMTDT/WHRObYr21mii+Xb7T2+M4vSfT1bkcb0rkpal6xalo4msxzEw6dNqr6e28dvjDj1mix6qm1uk/CX5tGd9Z9C322cm47XS19HM85MMds4vWPOv4MDWbDmpmpz0lTtRp8mnvyZIUQbmhRAFEAUQBRAFEAUQBRAFEAUQBRAFdrPuu5Zdmnaq67LXRzb2vdc9k+n09O51B5tWLd4e6XtSd6zs8i9LY7ezeOJTl6uTFTLX2bxz5T5POz6e+Gee+vhLzNdnTTJFuk93DleXCJWJeXvZz5VxiV5GNnKJVx5UYURRhRBgUBkAAAAAAAAAAAAAAAZp0h9n2s3+1NXrfb0u3d8WmOL5Y/0x5ev4teTJTFXmvPRsxYb5bctI3l4OwdObj1HrY0+hxc1iY95lt2Uxx5zP8ATvbv6Y6P27pjT/oa++1do4yam8fFPpHlHo9fbtt0e06Kmj0OCmHBTurWO/1nzn1dpA6rW3zezHSqyaPh9MHtT1t/7sAOJIAAAAAAAAAADGuuv2bt97RkrGuuv2bt97R0aT9en1cuu/bX+ktYALYpAAAAAAAAAAAAAAAAAAAAAACx3x9W82jI74+reaF4v8nn6LDwLtk8vUAQqwAAAAAAAAAAAAAAAAAAAAAAAAAAAAAAAAAAAAAAAAAAAAAAAAAAAAAAAAAAAAAAAAAAAAAAAAAAAAAAAAAAAAAAAAAAAAAAAAAAAAAAAAAAAAAAAAAAAAAAAAAAAAAAAAAAAAAAAAAAAAAAAAAAAAAAExzHE9zWXWnQXse93TZ8fw/Nm01Y7vOa/l/Bs0b9PqL4L81HNqtLj1NOS/8A8fmobV606DjXe83PaaRXU/NlwRHEZPWv+r8Wq7VtS01tE1tE8TExxMSs2n1NM9eaqnavSZNNflv5T4oA6HKAAAAAAAAAAAAAAAAAAAAExExxMcxPgAy6OfRzXm2Ltjxr5Opy9l19Rpa5ebV+G/8AKXia+DfjzfCzz+ViUtW2O3s2iYmEiXh0OfK8uPK8jGzlyrjCjCq4qMKqAwoAAAAAAAAAAADnhw5dRmphw47ZMt59mtKRzNp8oh6GybDuHUGujS6DDN5773nsrSPOZbt6V6L2/pnDF6xGfXWji+otHbHpWPCHJqdXTBG3efB26TRZNRO/avixvo/7M8el93r99pXJm+aml760/wB3nPp3fVsmIitYiIiIjsiI8FEBmzXzW5rysuDT48FeWkADU3AAAAAAAAAAAADGuuv2bt97RkrGuuv2at97R0aT9en1hy679tf6S1gILYpCiAKIAogCiAKIAogCiAKIAogCiAKIA5R3x9W82i4+aPq3oheL/J5+iw8C7ZPL1AEKsAAAAAAAAAAAAAAAAAAAAAAAAAAAAAAAAAAAAAAAAAAAAAAAAAAAAAAAAAAAAAAAAAAAAAAAAAAAAAAAAAAAAAAAAAAAAAAAAAAAAAAAAAAAAAAAAAAAAAAAAAAAAAAAAAAAAAAAAAAAAAAAAAAAAAAAAAwvrHofHvVba7QRXFr4j4q91c318p9WaDbizXxW56T1ac+Cmek0yR0fm3NhyafNfDmpbHkpPs2raOJiXBuzq7o3T9RYff4PZw7hSPhycdl4/wAtvz8GmtZo9RoNXk0uqxWxZsc8WraFl0urpqK9O/xhT9bob6W209Y+EvgA6nEAAAAAAAAAAAAAAAAAAAAAA4ZcNM1eLR9J8YebmwXwz29tfCYeqkxFomJjmJ8JYmN2ymSa/R4/K8uxqNHNObY+2vl4w6vLXMbOqtotG8OcSrhyvLBs5q48ryyw5CAw5cnKDAvKuKjCiAKIAojljx3y5K48dLXvaeK1rHMzPpAIy/pLoLXdR2rqdR7Wl27n/wC7MfFk9KR/Xu+rJ+j/ALMox+71+/0i1vmpo/CP9/n9P4+TZ9a1pWK1rFa1jiIiOIiEVquIRX2MXfxTOj4ZNvbzdvD8unte06HZdDTR6DBXDhr5d9p85nxl3QQ8zMzvKeiIrG0ADDIAAAAAAAAAAAAAAxrrr9mrfe0ZKxrrr9mrfe0dGk/Xp9Ycuu/bX+ktXgLYpAAAAAAAAAAAAAAAAAAAAAACx80fVvRouPmj6t6IXjHyefosPAu2Ty9QBCrAAAAAAAAAAAAAAAAAAAAAAAAAAAAAAAAAAAAAAAAAAAAAAAAAAAAAAAAAAAAAAAAAAAAAAAAAAAAAAAAAAAAAAAAAAAAAAAAAAAAAAAAAAAAAAAAAAAAAAAAAAAAAAAAAAAAAAAAAAAAAAAAAAAAAAAAAAAPA6o6V0nUmj4txi1lI/RZ4jtj0nzh74948lsdotWdpa8mKmWs0vG8S/O257Xq9n12TR63FOPLT+Fo84nxh02/uoOndF1FoZwamsVy1j9FmiPipP9Y9Gk972PW7Br7aTWU4nvpkr8t484lZNHra542npZUtfw++mtzR1r4/l5oDuRoAwADIAMAAyADAAMgAwADIAMAAyADAOtqNJXJzanFb/wApdkJjd6raazvDxrVtS01tExMeZy9XNhpmrxaO3wnyebmwXwW4t2x4TDXNdnVTJFvq48q4cuUSw97OXK8uPK8sMOXKuJyMOQnKjAqAKDK+k+htf1LkjNfnTbfE/FntHbb0rHj9e54yZK4681p2h7x4r5bctI3l4mz7Lr9911dJt+CcuSe2091aR52nwhu3pPobQdNY4zW9nU7hMfFntHZX0rHh9e97Wz7LoNi0NdJt+CMWOO2099rz52nxl6CC1Wutl9mvSqx6Ph9MHtX62+wA4UiAAAAAAAAAAAAAAAAAAMa66/Zq33tGSsa66/Zq33tHRpP16fWHLrv21/pLV4cpytikKHJyAJyvIAJyCicryAJycgoAAcnIAcnIAnK8gCcryAHKcg5R80fVvRoqPmj6t6oXjHyefosPAu2Ty9QBCrAAAAAAAAAAAAAAAAAAAAAAAAAAAAAAAAAAAAAAAAAAAAAAAAAAAAAAAAAAAAAAAAAAAAAAAAAAAAAAAAAAAAAAAAAAAAAAAAAAAAAAAAAAAAAAAAAAAAAAAAAAAAAAAAAAAAAAAAAAAAAAAAAAAAAAAAAAAAAPP3nZdFvugtpNbji1Z7a3j5qT5xL0BmtprPNXu82rW8TW0bxLQXUXTWt6c1vutRHt4bzPus9Y+G8f0n0eM/Rm47bpN10WTSa3DXLhv3xPfE+cT4S0r1T0lq+m9T7U85dFe3GLNEfyt5T+Kx6LXxmjkv0t91U4hw22nn+pj61+zHQEiiQAAAAAAAAAAAAAAAAAAAAABLVi1ZraImJ8JUB5+fSTj5tj7a+XjDrRL2XV1Gki/NsfZby8JeJr4Ommb4WdGJXlxmJraa2jiY8JOWtvc1iXHleR52clceVZYVypW17xSlZta08RERzMy7e1bTrt611NHoNPbNmt4R3VjzmfCG7OkegdD05Sup1Hs6rcZjn3sx8OP0rH9e/6OXUaqmCOvWfB16XR5NRPTpHixjo77Mpv7vX7/SYr2Wx6Pxn1v+X8fJtXHjpix1x46VpSscVrWOIiPKIchAZs981t7LJp9NjwV5aQANLeAAAAAAAAAAAAAAAAAAAAMa67/Zq33tGSsa67/Zq33tHRpP16fVy679tf6S1cAtikAAAAAAAAAAAAAAAAAAAAAALX5o+rerRVfmj6t6oXjHyefosPAu2Ty9QBCrAAAAAAAAAAAAAAAAAAAAAAAAAAAAAAAAAAAAAAAAAAAAAAAAAAAAAAAAAAAAAAAAAAAAAAAAAAAAAAAAAAAAAAAAAAAAAAAAAAAAAAAAAAAAAAAAAAAAAAAAAAAAAAAAAAAAAAAAAAAAAAAAAAAAAAAAAAAAAAAPjq9Jp9dpsmm1WKuXDkji1LRzEvsMxMxO8MTETG0tK9X9F5+n81tVpotl260/DbvnH6W/Nib9J5cWPPiviy0rfHeOLVtHMTHq1H1n0Lk2m19w22lsmgntvSO22H86+vgntDxCMm2PL38fH/AKrPEeFzj3y4fd+MeH/GECCWQiiAKIAogCiAKIAogCiAKIAogCiAKIAogD55sFM1eLdk+Ew87LhvhtxaOzwmPF6qWrW9ZraImJ8Hma7tlMk16fB5ESr7Z9JbFzanNqfzh8K82mIrEzM9kRHi1zGzqiYtG8OUSynpPoncOqM0ZKxODQ1txfUWjs+lY8ZZH0Z9mGTV+73DfqWxYJ+Kml54tf8A3eUenf8ARt3DgxabBTDgx1x4qR7NaUjiIj0hF6riEU9jF1nxS2k4bN/by9I8HQ2PYNv6e0MaXb8MUjvvee2+SfO0+L0wQtrTad57p2tYrG1Y2gAYZAAAAAAAAAAAAAAAAAAAAAAGNdd/s1b72jJWNdd/s1b72jo0n69Pq5dd+2v9JauAWxSAAAAAAAAAAAAAAAAAAAAAAFr80fVvVoqvzR9W9ULxj5PP0WHgXbJ5eoAhVgAAAAAAAAAAAAAAAAAAAAAAAAAAAAAAAAAAAAAAAAAAAAAAAAAAAAAAAAAAAAAAAAAAAAAAAAAAAAAAAAAAAAAAAAAAAAAAAAAAAAAAAAAAAAAAAAAAAAAAAAAAAAAAAAAAAAAAAAAAAAAAAAAAAAAAAAAAAAAAAAHR3fddDs225dZuOWuPT1jiYntm3+mI8ZnyfHf+oND05tttbrsnEd1MdfmyW8ohoDqjqjXdUbjOo1VvYw07MOCs/Djj+s+cuzS6S2ad56VcWr1lcEbR1smv3TR7hu2ozaXSRo8GS/OLF7XPEODxnc02r7qZZ+lvzWWk7Ryqnlx7zNod0BscwAAAAAAAAAAAAAAAAAAAAAAAA9/ovcNn2Xe41O46GMk2mPYz9/uZ84r4/jHg8AeMuOMlZpb4tuHNbDeL17w/SWn1OHV6emo0+WuXDkj2q3rPMTD6tC9OdV6/pzUc4be801p/SYLz8M+seU+rcux9QaDqDRxn0eX4oj9Jit2XpPrH9Va1Wivp53718Vt0XEMepjbtbw/D1QHEkAAAAAAAAAAAAAAAAAAAAAAAABjXXf7NW+9oyVjXXf7NW+9o6NJ+vT6uXXftr/SWrgFsUgAAAAAAAAAAAAAAAAAAAAABY+aPq3q0VHzR9W9ULxj5PP0WHgXbJ5eoAhVgAAAAAAAAAAAAAAAAAAAAAAAAAAAAAAAAAAAAAAAAAAAAAAAAAAAAAAAAAAAAAAAAAAAAAAAAAAAAAAAAAAAAAAAAAAAAAAAAAAAAAAAAAAAAAAAAAAAAAAAAAAAAAAAAAAAAAAAAAAAAAAAAAAAAAAAAAAAAAAHh9T9U6Hpfb/7RqZ9vNfsw4Kz8V5/pHq63V3WWj6W0nFuM2uyR+iwRP87eUfi0Num6azedfk1uuzTlz5J7ZnuiPKI8Id+k0U5Z5r+790brdfGH2KdbfZ9d+37XdRblfW67J7Vp7KUj5cdfKsPKchPVrFY2jsr1rTaea09XCYRySYZN3Z02q9jimSfh8J8nf73jS7Gm1U4pil+2n4PdbfCWnJi361eiJExaImJ5ifFWxzAAAAAAAAAAAAAAAAAAAAAAAADs6DcNVtmspqtHmthzUnmLVn+U+cejrDExExtLMWms7x3bm6U680u9xTSa32dPr+6I7qZP9vr6MxfmiJmJ5jslsLpP7RMml93od6tbJh7K01Pfakf6vOPXv+qE1fDJj28P+vwsWh4vFtsefv4/ltUfPDmxajDTNhyVyYrxzW9Z5iYfRDJ8AAAAAAAAAAAAAAAAAAAAAAY113+zVvvaMlYz13+zVvvaOjSfr0+rl137a/0lq8TkW1SFEAUQ5BROTkFE5AUTkBROTkFE5OQUQ5BRDkFE5OQUQ5Byj5o+rerRNfmj6t7ITjHyefosPAu2Ty9QBCrAAAAAAAAAAAAAAAAAAAAAAAAAAAAAAAAAAAAAAAAAAAAAAAAAAAAAAAAAAAAAAAAAAAAAAAAAAAAAAAAAAAAAAAAAAAAAAAAAAAAAAAAAAAAAAAAAAAAAAAAAAAAAAAAAAAAAAAAAAAAAAAAAAAAAAAAAAAAAMO616603TWG2l03s5tzvX4af4cUT/it+Tp9c/aBi2SuTbdstXJuMxxe8dtcH529PDx8mls2bLqc182bJbJlvPtWveeZtPnMpPR6Hn9vJ2+6J13EIx748Xfx8P+ues1mp3DV5NVq8182fJPNr3nmZfAE3ERHSFfmZmd5RHJOBlHFyBlxmHGYc5hxkZh9dPqbYZ4ntpPfHk9Ktq3rFqzzEvH4fTBntgt2dtZ74e622a8mPm6x3eqOOPJXJWLVnmHJscvYAGAAAAAAAAAAAAAAAAAAAAAAAAGQ9NdX6/pzNFaWnNo7TzfT2ns+tZ8Jbk2XfdBv2jjUaHNFuPnxz2WpPlMPz07e27prNo1lNVos9sWWvjE9kx5THjCP1egpn9qvS33+qU0PE76f2L9a/b6P0YMT6V650e/1rptR7Om3D/tzPw5P9s/0ZYr2XFfFblvG0rThzUzU58c7wANbaAAAAAAAAAAAAAAAAAAMZ67/Zq33tGTMZ67/Zq33tHRpP16fWHLrv21/pLVwC2qSAAAAAAAAAAAAAAAAAAAAAAtfmj6t7NE1+aPq3shOMfJ5+iwcC7ZPL1AEKsAAAAAAAAAAAAAAAAAAAAAAAAAAAAAAAAAAAAAAAAAAAAAAAAAAAAAAAAAAAAAAAAAAAAAAAAAAAAAAAAAAAAAAAAAAAAAAAAAAAAAAAAAAAAAAAAAAAAAAAAAAAAAAAAAAAAAAAAAAAAAAAAAAAAAAAAACTMREzMxER3zIK1p119oldJGXatly+1qe2ubU17sfnFfX18Pr3dHrv7RZze82rY80xj7a5tVSe23+mk+Xq1el9Hof/ANMseX5Qmu4j3x4Z+s/hbWte02tM2tM8zMzzMygJdCCKAgADi5JIyjjLkkjLjMI5JwMriy2w35r3eMeb08WWuWntVn6x5PKXHktiv7VZ7fxeq22eMmOLdfi9cfLDnrmrzHZMd8eT6trkmJidpABgAAAAAAAAAAAAAAAAAAAAAAABa2mtotWZi0TzEx4Nj9KfaNbH7Gi3y82p3U1XHMx/u8/q1uNOfT489eW8OjTarJp7c2Of+v0tjyUy465Md63paOa2rPMTHpLk0b0v1nrunckYrc59DaebYbT219az4T/JuPaN50O96Ouq0OaMlZ+av+Kk+Vo8Fb1WjyaeevWPFbNHr8epjp0t4O+A5HcAAAAAAAAAAAAAAAAMZ67/AGat97RkzGeu/wBmrfe0dGk/Xp9Ycuu/bX+ktXCC2qQogCiAKIAohyCiAKIAogCiAKIAonICiAOVfmj6t7NEV+aPq3uhOMfJ5+iw8C7ZPL1AEKsAAAAAAAAAAAAAAAAAAAAAAAAAAAAAAAAAAAAAAAAAAAAAAAAAAAAAAAAAAAAAAAAAAAAAAAAAAAAAAAAAAAAAAAAAAAAAAAAAAAAAAAAAAAAAAAAAAAAAAAAAAAAAAAAAAAAAAAAAAAAAAAAAAAAAAAD46rV4NDpcmp1WWuLBjr7V73niIgiN+kEzt1lzy5ceHFfLlvWmOkTa1rTxERHjMtNddfaFk3a19s2jJbHoI7MmWOy2b8q/i6XW3Xmo6izW0eitfDtlZ+Xutm9benlDCk3o9Dye3k7+CA13EOffHi7ePivKcgk0QvIgC8iALygAIoCIoMuPCOQMuEwnDkkjKVvbHaLVniYelg1Fc1fK8d8PNSJmtotE8THi9RbZ5vSLw9kdfT6mM0ezbiL/AIvu2xO7kmsxO0qIDCiAKIAogCiAKIAogCiAKIAogCiAKIAogCu9tW8a3ZdZXVaHPbHkjvj/AA2jymPGHQGLVi0bT2ZraazzVnaW8el+tdD1DSMOT2dProjtw2nsv61nx+neyh+aKZL4slb472pes8xas8TEtmdJ/aPFvY0O+X4nupq/P0v+f8fNBazhs09vD1jwWTQ8Wi+2PP0nx/LZYlbVvSL0tFq2jmJieYmFRCcAAAAAAAAAAAAAAGM9efs1b72jJmM9efs1b72jo0n69PrDl137a/0lq0BbVJAAAAAAAAAAAAAAAAAAAAAAWvzx9W92iK/PX6t7oTjHyefosPAu2Ty9QBCp8AAAAAAAAAAAAAAAAAAAAAAAAAAAAAAAAAAAAAAAAAAAAAAAAAAAAAAAAAAAAAAAAAAAAAAAAAAAAAAAAAAAAAAAAAAAAAAAAAAAAAAAAAAAAAAAAAAAAAAAAAAAAAAAAAAAAAAAAAAAAAAAAAAAAB529b3odg2++s1+aKY47K1j5rz5VjxlmtZtO0MWtFY3ns+25blpNo0OTW67NXDgxx22nx9Ijxn0aJ6w611nVGqnHX2sO3Y7c4sHPzf6rec/g6vVPVmu6o13vc9px6akz7nT1n4aR5z5z6vAT2k0UYvbv732VzW6+c3sU6V+4A70aAAAAAAAAAAAAiOSDLjKOSSMuMpw5JMDLj2xPMd7v6bVRk4pfsv4T5ui4sxOzFqxaOr2R09NqueMeSe3ws7jbE7uS1ZrO0gDLyAAAAAAAAAAAAAAAAAAAAAAAAAAyvpXrfW9P3rp83tanQTPbime2nrWf6dzcO17rot40ddVoc9cuKe/jsms+Ux4S/Ob0dn3vX7FrY1OhzTS3dak9tbx5THijtXw+ub2qdLfdLaHil8G1MnWv8w/RAxzpjrHQ9R4YxxMYNbWPjwWnv8AOa+cMjV7Jjtjty3jaVnx5aZaxek7wAPDYAAAAAAAAAAMZ68/Zq33tGTMZ68/Zm33tHRpP16fWHLrv21/pLVoHK2qSAcgAAAcgAAAAAAAcgAAAcgAAAAtfnr9W92iK/NX6t7oTjHyefosPAu2Ty9QBCp8AAAAAAAAAAAAAAAAAAAAAAAAAAAAAAAAAAAAAAAAAAAAAAAAAAAAAAAAAAAAAAAAAAAAAAAAAAAAAAAAAAAAAAAAAAAAAAAAAAAAAAAAAAAAAAAAAAAAAAAAAAAAAAAAAAAAAAAAAAAAAAAAAABjvVnV2i6W0M3yTGXWZI/Q6eJ7bT5z5V9XqlLXty1jq8XvXHWbWnaHa6j6l0HTW3zqdZfm8xPusNZ+LJPlHp6tB9Q9Ra/qTcZ1etydkcxjxV+XHXyj8/F8N43nXb7uF9br805MtuyI7orHlEeEOgsGl0lcMbz1sres1ttRO0dKgDscAAAAAAAAAAAAAAAioMoKgIjknAy4zCOT09j6f3HqLXxpNvwTe3fe89laR5zPgxa0Vjeez3Ws2nlrHV5mLBl1OamHDjtky3n2a0pHMzPlENj6f7MN5p09Oqy5KTro+Kukjtn2eO72v83p/Nn/AEl0Pt3S+GMlYjUa+1eL6i0d3pWPCP5soRGbidot/a7fdM4eFVtT+93n+H5ntW1L2pes1tWeJiY4mJRubrLobFvlLa3QRTDuERzPhXN6T6+v8Wnc+DLpdRkwZ8dseXHaa3paOJiUtptVTUV3r3+MILWaPJpr7W7fCXzAdLjAAAAAAAAAAAAAAAAAAAAAAAAAAc8WXJgy1y4r2pkpPNbVniYn0bR6T+0amo9jQ73eKZe6mq7q29LeU+rVY0ajTY89drw6dNq8mmtzUnyfpitotWLVmJiY5iY8VaV6U671ewzTS6r2tTt/dFJn4sfrWfL0/BuDbty0m66Omr0WeubDbxr4T5THhKt6nSZNPPtdvFbNJrcepr7PSfB2gHK7AAAAAAAABjPXn7M3+9oyZjPXn7M3+9o6NJ+vT6w5dd+2v9JasAW1SQAAAAAAAAAAAAAAAAAAAAAFr88fVvhoevzx9W+EJxj5PP0WHgXbJ5eoAhU+AAAAAAAAAAAAAAAAAAAAAAAAAAAAAAAAAAAAAAAAAAAAAAAAAAAAAAAAAAAAAAAAAAAAAAAAAAAAAAAAAAAAAAAAAAAAAAAAAAAAAAAAAAAAAAAAAAAAAAAAAAAAAAAAAAAAAAAAAAAAAAAAAA8Dq7qbD0vs1tVaIvqck+xgxT/it5z6R4vz9uG4ardddl1mszWy58s82tP4R5Q9/wC0Dfbb31TqPZtM6bSzODDHh2d8/vnn+TFlh0WnjFj5p7yrGv1U5sk1j3Y/9uAO1wgAAAAAAAAAAAAAAAAAIKgIOePFfNkrjxUtfJaeK1rHMzPlENrdG/ZhGP3e4dQU5t81NH4R63/L+Pk05s9MNd7S36fT5M9uWkMW6Q+z/XdSXrqdR7Wl27/uzHxZPSsf17vq3dtO0aHZNDTR7fp64cNfLvtPnM+Mu7SlcdK0pWK1rHEViOIiFQGo1V889ekeCyabSU08dOs+IA5nUMX6u6N03UennNi9nDuFI+DLx2Xj/Lb8/BlA2Y8lsVotSdpa8uKmWk0vG8S/N2u0Op23WZNJq8VsWfHPFqz/AO+512+up+ldH1Lo5rkiMWrpH6LPEdsek+cNJbrtWs2XX30etxTjy17vGLR5xPjCy6TWV1Fdu1vBUddoL6a2/es9p/LpAcuxwAcgAcgAcnIAcgAHIAHIAcnIAHIAHIAcgAcnIAcnIAcnID1Nj6g1/T+sjUaLLxE/Pit20vHlMPLOWLVreOW0bw90valotWdphvrprq3QdSYOMVvdausc30957Y9Y84e+/NWDUZtLnpnwZb4stJ5rek8TE+ktqdJ/aLi1vu9DvNq4tTPFaajupf8A3eU/yQGs4bbH7eLrHh4LLoeK1y7UzdLePwlsEInmOY7hFJkAAAAAAYz15+zN/vaMmYz15+zN/vaOjSfr0+sOXXftr/SWrAFtUkAAAAAAAAAAAAAAAAAAAAABa/PH1b4aHr88fVvhCcY+Tz9Fh4F2yeXqAIVPgAAAAAAAAAAAAAAAAAAAAAAAAAAAAAAAAAAAAAAAAAAAAAAAAAAAAAAAAAAAAAAAAAAAAAAAAAAAAAAAAAAAAAAAAAAAAAAAAAAAAAAAAAAAAAAAAAAAAAAAAAAAAAAAAAAAAAAAAAAAAAAADqbpqf7HtOt1Ud+HBfJ/Csz/AEdt5vUOOc3TW64q/NfR5qx9ZpL1SIm0bvN5mKzMPzRa02tNrTzMzzMogtimKIAogCiAKIAogCiAKIAogCiAKIAr0Nn2TX79rq6Tb8E5ck9tp7q0jztPhD2+kuhNf1NkjPf2tNt8T8We0dtvSkeP17m79n2TQbDoa6Tb8EYscdtp77XnztPjLh1Wuri9mvWyQ0nD75vav0r93idJdC7f0zjjNbjU7hMfFntHZX0pHhHr3srBBZMlslua07ysWPHTHXlpG0ADw9gAAADyeoOndF1FoJ0+qpEZIifdZoj4sc+np6PWHql7UtFqztLzelb1mto3iX5533YNb09r50usp2T248lflyR5x+Ty36K3jZtFvmgtpNbii9J7a2j5qT5xPhLSPUvS+t6a1vu88e8095n3Oesdlo8p8p9Fj0Wurnjlt0t91U1/DraeeenWv2eGAkEYAAAAAAAAAAAAAAAAAAAAAAAAAAAAzTpPr/U7L7Gj1/tajQR2Vnvvij0849G3tFrtLuOkpqtHmpmw3jmt6z/74l+bXr7B1JuHTur97o8nOO0x7zDb5Lx6x5+qM1fDq5fbx9LfdL6HilsO1MvWv8w/QY8Pp3qrb+o9P7Wnv7vUVj9Jp7z8VfWPOPV7iv3paluW0bSs2PJXJWLUneJAHl7AAGM9efszf72jJmM9efszf72jo0n69PrDl1v7a/0lqwBblKAAAAAAAAAAAAAAAAAAAAAAWvz1+rfDQ9fnr9W+EJxj5PP0WDgX/wCnl6gCET4AAAAAAAAAAAAAAAAAAAAAAAAAAAAAAAAAAAAAAAAAAAAAAAAAAAAAAAAAAAAAAAAAAAAAAAAAAAAAAAAAAAAAAAAAAAAAAAAAAAAAAAAAAAAAAAAAAAAAAAAAAAAAAAAAAAAAAAAAAAAAAAAl6xelqWjmto4mFAfmTfdsvs++azQZKzE4cs1rz4176z++OHntw/an0pfXaeu+aLH7WbBX2dRWsdtqR3W/d+H0aeWbTZozY4t8fiqerwTgyzX4fAAdDmAAAAAAAAAAAAAAAd7ato12966mj2/T2zZreXdWPOZ8IYmYiN5ZiJtO0OlSlr3rSlZta08RWI5mZbS6O+zCb+73DqCk1r2Wpo/Gf9/5fx8mUdIdAaHpuldTqPZ1W5THblmPhx+lI/r3/RmCH1XEJt7GLt4pzR8Nivt5u/h+XHHjpix1x46VpSscVrWOIiPKIcgRSYAAAAAAAAAAHV3HbtJuuiyaPW4a5cN47az4T5x5S7QzEzE7wxMRaNp7NFdWdH6vpvUzkrFsugvbjHm8v9NvKfxY0/Smq0uDW6bJptTirlw5I9m9LRzEw011j0Rn2DLfV6Stsu22nst32xelvT1WDQ6+Mv8Abye99/8AqscQ4ZOHfJi937f8YgAlUOAAAAAAAAAAAAAAAAAAAAAAAAAAAA+2l1WfRammo02a+HNSea3pPEw2x0l9oeDc/Y0W7TTT6zsimXupk/Kf5NQDm1Olx567W7+Lr0usyaa29O3g/TY090l9oeo2qaaLdZvqNF2Vrk774o/rHp/8Nt6TV6fX6XHqdLmrlw5I5res9kq3qdLk09trdvFa9LrMeprvTv4PsA5nUMZ68/Zm/wB7RkzGevP2Zv8Ae0dOj/Xp9Ycuu/bX+ktWBycrapIHIAAAHJyAHJyAHJyAByAByAByAHJyAHJyAAC1+ev1b4aHr89frDfCE4x8nn6LDwLtk8vUAQifAAAAAAAAAAAAAAAAAAAAAAAAAAAAAAAAAAAAAAAAAAAAAAAAAAAAAAAAAAAAAAAAAAAAAAAAAAAAAAAAAAAAAAAAAAAAAAAAAAAAAAAAAAAAAAAAAAAAAAAAAAAAAAAAAAAAAAAAAAAAAAAAAASYiYmJjmJ74lqPrv7Obab3m67Hhm2Httm01e2aetY8vTwbdG7BnvhtzVaNRp6Z68tn5UG3eu/s4jVe83XY8MRnmZtm0teyL+c1jz9PFqK1bUtNbRMWieJiY7YlYsGemavNVWNRpr4LctgQbmhRAFEAUQBRAFEAUIibTEREzM9kRDZnR32YZNT7vcN/pbHh+amk7rX/AN/lHp3/AEas2amGvNeW7Dp75rctIY10p0TuPVGaMlYnT6Cs8X1Fo7J9Kx4y3jsewbf09oY0u34IpXvvee21587T4vQw4cWnw0w4cdceKkezWlI4iI8ohzQGp1d807do8Fj0uipp437z4gDldgAAAAAAAAAAAAAA4ZcWPNiviy0rfHeJrato5iY8pcwGoOtOg77Va+47XS2TQ9+TFHbOH19a/gwR+mZiLRMTETE9kxLV3WvQHuIvuey4ZnH22zaavb7PrWPL0Tuh4jzbY8s9fhP5V3iPC+XfLhjp8Y/DW4CZQIAAAAAAAAAAAAAAAAAAAAAAAAACADKPa6e6p3DpvU+3pb+3gtMe8wXn4bflPq8VJeb0revLaN4e8eS2O0WpO0v0J091Nt/Uek97pMns5ax+kwXn46fnHq9l+aNFrtTt2rpqtHmvhzUnmt6TxLb/AEl9oel3n2NFuXsabXccRbnimWfTyn0/+Ff1nDrYvbx9a/ZZtFxOubamXpb+JZwxjr39mbfe0ZOxjr39mbfe0cmj/Xp9Ydmt/bX+ktWALapQAAAAAAAAAAAAAAAAAAAAAC1+ev1hvloavz1+sN8oTjPyefosHA+2Ty9QBCJ8AAAAAAAAAAAAAAAAAAAAAAAAAAAAAAAAAAAAAAAAAAAAAAAAAAAAAAAAAAAAAAAAAAAAAAAAAAAAAAAAAAAAAAAAAAAAAAAAAAAAAAAAAAAAAAAAAAAAAAAAAAAAAAAAAAAAAAAAAAAAAAAAAAAAa/66+z3FvVcm5bVSuPcY7b447K5/yt6+Pi2ANmLLbFbmrLVmw0zV5Lw/K2bDl0+a+HNjtjy0ma2paOJrPlMODfXW3Qmm6kwW1ekimHdKR8N+6uWI/wANv6S0ZrNFqdv1eTS6vDfDnxz7N6XjiYlYdNqa567x38Fa1Wlvp7bT2+EvgA6XKAAAAAAO3tu2azd9dTR6DT3zZ791ax3R5zPhHq9jpbo3ceqNRHua+50dZ4yam8fDHpHnPo3l0/03t3TehjTaDDxaY/SZbdt8k+cz/TucWq1tcPsx1s7tJoL5/at0r/7s8Do/7PNF09FNZrfY1W5d8WmOaYp/0x5+v4M2BBZMtslua89VixYqYq8tI2gAa2wAAAAAAAAAAAAAAAAAAABrrrXoCNV7zc9mxcZ+22XT17r+c19fTxaqtWaWmtomLRPExMdsS/TTButOhMe8VybjttYx7hEc3pHZXN+VvXxTGh4hy7Y8s9PhKD4hwzm3y4Y6/GPw06OebDk0+a+HNjtjyUn2bUtHExPlMOCd3VzsAAAMgAwAAAAAAAAAAAAAAAAAACAyCSqSMuMpKykssw2B0j9pGfb5x6HebXz6XsrTP33xx6/5o/n9WadaanBrOkI1Gmy0y4cmSlqXpPMTDRMvW2fctXSmTb4z3/smT47YpnmPajumPJwZNBT+rXLTpMT1SVOIX/oWw5OsTHR6Qcpy7kWonK8gCcryAHKcgonK8gBynIKHJyAHJyAHJyAHJyAHKcgocgLX56/WG+Whq/PX6t8oTjPyefosHA+2Ty9QBCJ8AAAAAAAAAAAAAAAAAAAAAAAAAAAAAAAAAAAAAAAAAAAAAAAAAAAAAAAAAAAAAAAAAAAAAAAAAAAAAAAAAAAAAAAAAAAAAAAAAAAAAAAAAAAAAAAAAAAAAAAAAAAAAAAAAAAAAAAAAAAAAAAAAAAAAAYx1f0ZouqdJNpiuHX468YtREf/AI284/Bk490valuas9XjJjrkrNbRvD8v7ptWt2bX5NFr8FsWenfE90x5xPjHq6b9H9T9K6DqjQ+51VfYz0ifc56x8VJ/rHo0V1B0tunTeqnFrsE+6meMeenbS/0nz9J7U/pdZXNG09LK3q9FfBO8da/+7vFAdjiAdvbts1u7auul0GmyZ81v8NI549Znwj1liZiI3kiJmdodSI5niO9sjo37Ms24e71++Vvh0s/FTTd18n+7/LH8/oyno77OdJscY9buUU1W4d8R30xT6ec+v8GdojVcQ39jF/v8JvScN29vN/r8vlptNg0enx6fTYqYsOOPZpSkcRWPo+oInumYjYAAAAAAAAAAAAAAAAAAAAAAAAABiXWHRWn6hw21Wm9nDuNK/DfujJ6W/pLS+r0mo0OqyabVYb4s2OeLUtHEw/SrHOqukdJ1LpeZ4w63HHGLPEfyt5x+CU0WvnF7GT3fsiOIcNjNvkxe99/+tDjtbltur2jXZNHrcNsWak9090x5xPjDq8rDExMbwrFqzWdp7gJyywonK8gCcnIKJycgonJyChynIKJycgonKgCKAHKcgonJyAAAkrLiMpLjLlLjLL1DjLubV+vf8JdN3Nq/Xv8AhIzPZ7gDDWAAAAAAAAAAAAAAAAAAAAAAtPnr9W+mhafPX6t9ITjPyefosHA+2Ty9QBCJ8AAAAAAAAAAAAAAAAAAAAAAAAAAAAAAAAAAAAAAAAAAAAAAAAAAAAAAAAAAAAAAAAAAAAAAAAAAAAAAAAAAAAAAAAAAAAAAAAAAAAAAAAAAAAAAAAAAAAAAAAAAAAAAAAAAAAAAAAAAAAAAAAAAAAAAAAfPPgw6nDbDqMVMuK0cWpkrFon6xL6AMK3P7Lundfa18OPLorz/2L/D/AAnl4tvsa0nt/DvGaK+U4YmfxbPHTXWZ6xtFnLbRae07zVgGh+yTYtPaLarPqtVx/htaKV/l2/zZpt+16HadPGn0GkxafFHhjrxz9Z8f3u2NeTPkye/O7ZjwYsXuV2AGpuAAAAAAAAAAAAAAAAAAAAAAAAAAAAAAeL1J0zoupdD7nUx7Ganbiz1j4qT/AFj0aO3vZNbsO4W0mtxzW0dtLx8uSPOJfot5m+bFouoNuto9bTmO+mSPmx284lIaLXWwTy261+yM1/D66iOavS33+r87D2eo+m9b03r5wamvtYrduLNWPhvH9J9HjLJS9b1i1Z3iVVvS2O01tG0wAPTyAAAAAAAAAAAAAAAAAAADKSiygI4y5OMsvUOMu5tP69/wl05dzaf17/hIzPZ7gDDWAAAAAAAAAAAAAAAAAAAAAAtPnr9W+mhafPX6t9ITjPyefosHA+2Ty9QBCJ8AAAAAAAAAAAAAAAAAAAAAAAAAAAAAAAAAAAAAAAAAAAAAAAAAAAAAAAAAAAAAAAAAAAAAAAAAAAAAAAAAAAAAAAAAAAAAAAAAAAAAAAAAAAAAAAAAAAAAAAAAAAAAAAAAAAAAAAAAAAAAAAAAAAAAAAAAAAAAAAAAAAAAAAAAAAAAAAAAAAAAAAAAAAAAAAB0902vSbxoMmi1uKMmG8fvrPhMT4S0h1V0lq+mdXxbnNo8k/os8R2T6T5S32+Gs0en1+kyaXVYq5cGSOLUtHZLs0msvp7eNfBw63Q01NfC0dpfmoZX1h0XqOnM06jB7Wbbrz8OTjtxz/lt+fixRZsWWmWsXpO8Knlw3xXml42kAbGoAAAAAAAAAAAAAAAABBklAkHGUlZcZZeoR3Nq/Xv+Eum7m0/r3/CR6ns9wAagAAAAAAAAAAAAAAAAAAAAAFr89fq300LX56/VvpB8Z+Tz9Fg4H2yeXqAIRPgAAAAAAAAAAAAAAAAAAAAAAAAAAAAAAAAAAAAAAAAAAAAAAAAAAAAAAAAAAAAAAAAAAAAAAAAAAAAAAAAAAAAAAAAAAAAAAAAAAAAAAAAAAAAAAAAAAAAAAAAAAAAAAAAAAAAAAAAAAAAAAAAAAAAAAAAAAAAAAAAAAAAAAAAAAAAAAAAAAAAAAAAAAAAAAAAAOGbDi1GG+HNjrkx3j2bUtHMTHq071p0Ll2S19w2+LZNvmebV77Yfr519f4typatb1mtoi1ZjiYmOYmHTptVfT23r2+MOTV6Smpptbv8ACX5kGw+tugLaL3u6bRT2tN82XT1jtx+c19PTw+ndrxZ8GemanNSVS1GnvgvyXgAbmkAAAAAAAAAAAAAARUBCRJGUlxlycZZZhJdzaf1//hLpS7m0/r3/AAll6ns90BhqAAAAAAAAAAAAAAAAAAAAAAWvz1+rfTQtfmr9W+kHxn5PP0WDgfbJ5eoAhE+AAAAAAAAAAAAAAAAAAAAAAAAAAAAAAAAAAAAAAAAAAAAAAAAAAAAAAAAAAAAAAAAAAAAAAAAAAAAAAAAAAAAAAAAAAAAAAAAAAAAAAAAAAAAAAAAAAAAAAAAAAAAAAAAAAAAAAAAAAAAAAAAAAAAAAAAAAAAAAAAAAAAAAAAAAAAAAAAAAAAAAAAAAAAAAAAAAAANadbfZ/7ycu6bNiiLfNm0tY7/ADtT8v4Nljfg1F8F+ajRqNNj1FOS78xzzE8THEwNvdbdA03SL7ltOOtNbHbkwx2Rm9Y8rfi1Fkx3xZLY8lZres8WraOJifJZ9NqaaivNXv4KjqtJk01+W3b4T4oIOhzKIAogCiAKIAogCiAHKcgAkqkjLikqksvUOMu5tX69/wAJdOXc2r9e/wCEjM9nuADUAAAAAAAAAAAAAAAAAAAAAAtfnr9Yb7aEr89frDfaD4z8nn6LBwPtk8vUAQifAAAAAAAAAAAAAAAAAAAAAAAAAAAAAAAAAAAAAAAAAAAAAAAAAAAAAAAAAAAAAAAAAAAAAAAAAAAAAAAAAAAAAAAAAAAAAAAAAAAAAAAAAAAAAAAAAAAAAAAAAAAAAAAAAAAAAAAAAAAAAAAAAAAAAAAAAAAAAAAAAAAAAAAAAAAAAAAAAAAAAAAAAAAAAAAAAAAAAAGG9ZdDYd/x21miimHcax391c3pb19f/cZkNmLLfFbnpPVqzYaZqTS8bw/M+p02bR6nJp9RitizY7ezelo4mJfJvbq7o7S9SaacmOK4dwpH6PNx83+m3nH4NJbht+q2vW5NHrMNsWfHPE1n8Y84WfSaymor06T4KnrNFfTW69a/CXWAdbiAAAAAAAAAAEABJVxkZSUlXGWXqHGXd2r9ej/ZLpS7u1fr0f7JZZns9wDlhqAAAAAAAAAAAAAOQAAAAAAAAcsdZtlpWO+bRDfTS/TmknXdQaLBxzE5Pat9I7Z/BuhA8YtE2pX6/wDv4WLgdJil7eMx/H/0AQydAAAAAAAAAAAAAAAAAAAAAAAAAAAAAAAAAAAAAAAAAAAAAAAAAAAAAAAAAAAAAAAAAAAAAAAAAAAAAAAAAAAAAAAAAAAAAAAAAAAAAAAAAAAAAAAAAAAAAAAAAAAAAAAAAAAAAAAAAAAAAAAAAAAAAAAAAAAAAAAAAAAAAAAAAAAAAAAAAAAAAAAAAAAAAAAAAAAAAAAAHg9T9K6LqXRTTLEY9VSP0OoiO2s+U+cej3h7pe2O0WrO0w8ZMdclZpeN4l+cN42bW7Hr76PXYvYyR2xMdtbx5xPjDoP0Tv8A09oeotBOm1lPijtx5a/Njnzj8mjN/wCntd07r502sp8M8zjy1+XJHnH5LJo9dXPHLPS3/uyq67h9tNPNXrX/AN3eSA70cAAAAAAAAAMiJKpIyjjLk4yPUOMu5tX69/wl03c2r9e/4SyzPZ7gDDWAAAAAAAAAAAAAAAAAAAAA+2l0ubW6rFpsFJvly2itYjzYmYiN5ZiJmdoZn9nO3TfU6ncb1+GlfdUn1ntn+XH8WxHR2fbce0bXg0ePj4K/Fb/Nae+f4u8qWrz/ANbNN/h8Fz0WD+hhik9/j9QBzOoAAAAAAAAAAAAAAAAAAAAAAAAAAAAAAAAAAAAAAAAAAAAAAAAAAAAAAAAAAAAAAAAAAAAAAAAAAAAAAAAAAAAAAAAAAAAAAAAAAAAAAAAAAAAAAAAAAAAAAAAAAAAAAAAAAAAAAAAAAAAAAAAAAAAAAAAAAAAAAAAAAAAAAAAAAAAAAAAAAAAAAAAAAAAAAAAAAAAAAAAAAdDd9n0W+aC+j12GMmO3bE91qT5xPhLvjNbTWd47sWrFo5bRvD8/9T9K63pnW+xmicmlvP6HPEdlo8p8p9Hgv0ruG36XdNFk0mtw1zYMkcWrb8Y8p9WkurujdV03qZy44tm269v0ebjtr/pt6+visWi18ZvYv0t91Y1/Dpwf3MfWv2YuAk0UAAAAAAAgCSEsiS4yspI9Q4y7m0/r3/CXTl3Np/Xv+EsvU9nuAMNQAAAAAAAAAAAAAAAAAADu7btGu3bP7rR6e2SfG3dWv1nwYtaKxvadoZrW1p5axvLp1ra9orWs2tM8RERzMtodHdL/AP0nD/bdZSP7bkjsrP8A0q+X18336d6P0uzRXPn9nUaz/PMfDT/bH9WSq/r+If1I/p4u3xnxWTh/Df6U/wBXL3+EeH/QBEpkAAAAAAAAAAAAAAAAAAAAAAAAAAAAAAAAAAAAAAAAAAAAAAAAAAAAAAAAAAAAAAAAAAAAAAAAAAAAAAAAAAAAAAAAAAAAAAAAAAAAAAAAAAAAAAAAAAAAAAAAAAAAAAAAAAAAAAAAAAAAAAAAAAAAAAAAAAAAAAAAAAAAAAAAAAAAAAAAAAAAAAAAAAAAAAAAAAAAAAAAAAAAAAfLU6bDrNNk0+pxVy4clfZvS0cxMPqETt1gmN+ktKdZ9DZthy21mhrfLttp+tsPpPp6sMfpzJjplx2x5KxelomLVtHMTHlLUXW3QN9sm+5bTjtfRdtsmGO2cPrHnX8E/oeIc+2PL38fFXOIcN5N8uGOnxjw/wCMAAS6FAAAAEVAQkJZZcZSVlxkeoSXc2n9e/4S6Uu7tX6//wAJZZns9wBhqAAAAAAAAAAAAAAAentWwblvF4jSaeZx88Tlv2Uj9/5PN71pHNadoeqUteeWsby8x39t2bcN2yRXR6a9454m/HFY+s9zPto6A0Ok9nLr7/2vLHb7HdSP3d8sux48eHHGPFStKVjiK1jiI/cidRxatemKN/8APwTOm4Ne3XNO3+Piw3aPs+0mniuTcsn9oyd/u6TMUj+s/wAmYYNPh0uGuHBipix17q0rxEPoIbNqMmad7zunMOmxYI2xxsANLeAAAAAAAAAAAAAAAAAAAAAAAAAAAAAAAAAAAAAAAAAAAAAAAAAAAAAAAAAAAAAAAAAAAAAAAAAAAAAAAAAAAAAAAAAAAAAAAAAAAAAAAAAAAAAAAAAAAAAAAAAAAAAAAAAAAAAAAAAAAAAAAAAAAAAAAAAAAAAAAAAAAAAAAAAAAAAAAAAAAAAAAAAAAAAAAAAAAAAAAAAAAAAAAAAAExExxMcxIA1b1v8AZ97uMm6bJima9ts2lrHd/qpH9P4NZ9z9PNd9b/Z/XWxl3TZ8fs6r5sunr3ZPOa/6vTx+vfNaHiO22PNP0n8oHiHDN98uGPrH4akOVtW1LzS9Zras8TExxMSicQAAACMgiygy4ykqkj1Di7m0/r//AAl03c2n9f8A+Essz2e6Aw1AAAAAAAAAAAPb2jpXdN4mt8eH3WCf+tl7I/d4y8ZMlMcc152h7x4r5LctI3l4j19q6a3TeJi2n081wz/1cnw1/wDX9zYG09EbZt01yZ4nV5o8ckR7MT6V/PlksRERERHER3RCI1HFojphjzlNabg0z1zT5R+WLbR0Jt2giuTWf+MzR2/FHFI/d4/vZTSlcdIpSsVrEcRERxEKIfLmyZZ3vO6cw4MeGOXHGwA1NoAAAAAAAAAAAAAAAAAAAAAAAAAAAAAAAAAAAAAAAAAAAAAAAAAAAAAAAAAAAAAAAAAAAAAAAAAAAAAAAAAAAAAAAAAAAAAAAAAAAAAAAAAAAAAAAAAAAAAAAAAAAAAAAAAAAAAAAAAAAAAAAAAAAAAAAAAAAAAAAAAAAAAAAAAAAAAAAAAAAAAAAAAAAAAAAAAAAAAAAAAAAAAAAAAAAAAAAAADCOtehMW90vuG31rj3GI5tXurm+vlb1/i03mwZdNnvhz47Y8tJ9m1LRxMT6v02xPrDorTdSYZ1GD2cO40r8OTwyR/lt+fgltDxCce2PL28fD/AIh+IcNjLvkxe94eP/WjB99Zo9Rt+ryaXV4bYs+OeLUtHbD4LBExMbwrcxMTtIioyEoSkgiSqSPUOLubV+vf8JdN3Nq/Xv8AhLLM9nuADUAAAAAACxEzMREczPhDI9n6K3Pc/ZyZqf2TBP8Aiyx8Ux6Va8uXHijmvOzZiw5Ms8uON2Nsg2no7dd1iuT3X9nwT/1M3ZzHpHfLYO09JbVtPs3ph99nj/q5e2efSO6HuobUcW+GGPOfwm9Nwb45p8o/LHto6N2vaore2P8AtWeP+pljmIn0juhkIIjJlvknmvO8pvFipiry0jaABrbAAAAAAAAAAAAAAAAAAAAAAAAAAAAAAAAAAAAAAAAAAAAAAAAAAAAAAAAAAAAAAAAAAAAAAAAAAAAAAAAAAAAAAAAAAAAAAAAAAAAAAAAAAAAAAAAAAAAAAAAAAAAAAAAAAAAAAAAAAAAAAAAAAAAAAAAAAAAAAAAAAAAAAAAAAAAAAAAAAAAAAAAAAAAAAAAAAAAAAAAAAAAAAAAAAAAAAAAAAAAAAAAGO9VdI6PqfScX4w6zHH6LPEdselvOGjd02vWbNr8mj12Gceak/utHnE+MP0o8bqPprRdS6CdPqY9nLXtxZqx8VJ/rHoktFr5wTyX61+yL1/D65456dLfd+eB6e+7Drentxto9bj4nvpkj5clfOJeYsdbRaItWeis2ralpraNphEVHphHFySRmHF3dpjnWTPlSXTettOGa4r5Zj5uyPoyT2eiANYAAOWPHfNkjHjpa97dkVrHMyyzaOgdfrPZya+0aTDP+Ge28/u8P3/wasufHhje87N2HT5c07Y43YlWtr2itaza090RHMyynaOhNy18Vy6rjR4Z/zxzef+Ph+9sDa+nds2isf2XTV95H/Vv8V5/f4fueohdRxa09MMbf5lOabg1Y65p3/wAQ8faOmNs2aItgwRfNHfmyfFb93l+57AIm+S2Sea87ymceOmOvLSNoAHh7AAAAAAAAAAAAAAAAAAAAAAAAAAAAAAAAAAAAAAAAAAAAAAAAAAAAAAAAAAAAAAAAAAAAAAAAAAAAAAAAAAAAAAAAAAAAAAAAAAAAAAAAAAAAAAAAAAAAAAAAAAAAAAAAAAAAAAAAAAAAAAAAAAAAAAAAAAAAAAAAAAAAAAAAAAAAAAAAAAAAAAAAAAAAAAAAAAAAAAAAAAAAAAAAAAAAAAAAAAAAAAAAAAAAAAebvex6Lf8Abr6PW4/arPbS8fNS3nEtF9TdM63pnX+41Ee3hv24c9Y+G8f0nzh+hnU3LbNHu+hyaPXYK5sN++J74nzifCfV3aPW2087T1q4Nboa6mN46W8fy/NKM56k+zbcNrvfPtvtavSd/HHx0j1jx+rDL6TUUni2G8T9FkxZqZa81J3VjLhvhty5I2l8El966TUXniMVv3xw7eHa5mec1uI/y1/Ntat3T0ultqcnEdlI+az3q1ilIrWOKxHEQlKVx0ilKxWseEOTLEzucj7abS6jWZ64dNhvlyW7q0jmWZbR9nmoyzXLumaMNO/3WOebT9Z7o/m0ZtTiwxveW7BpcuedscbsLw4cuoy1xYMd8mS3ZFaRzMsw2j7PtXqYrl3LJ/Zsc9vu69t5+vhDPtu2nQ7Vi93otNTFHjaI5tb6z3y7qF1HFr26Yo2jx+Kc0/B6V65Z3nw+Dztr2Pb9nx+zo9PWtuOLZJ7b2+svRBFWta872neUxWlaRy1jaAB5egAAAAAAAAAAAAAAAAAAAAAAAAAAAAAAAAAAAAAAAAAAAAAAAAAAAAAAAAAAAAAAAAAAAAAAAAAAAAAAAAAAAAAAAAAAAAAAAAAAAAAAAAAAAAAAAAAAAAAAAAAAAAAAAAAAAAAAAAAAAAAAAAAAAAAAAAAAAAAAAAAAAAAAAAAAAAAAAAAAAAAAAAAAAAAAAAAAAAAAAAAAAAAAAAAAAAAAAAAAAAAAAAAAAAAAAAAAAB5G59M7TuszbUaWtcs/9TH8Nv5d/wC96490vak71naXi+OmSOW8bwwHV/ZrWZmdHuFojwrlpz/OPyeXf7PN3rPFcmnvHnF+G0h204nqa/HfycN+Faa077bebWWD7OdyvMe+1OnxR6c2l7Wi+zrb8Notq9Tl1Ex/hiPYj+s/zZmPN+I6i/Tm2+j1j4ZpqdeXf6urotu0e24vdaPTY8NfH2Y7Z+s98/vdoHFMzM7y7oiKxtAAwyAAAAAAAAAAAAAAAAAAAAAAAAAAAAAAAAAAAAAAAAAAAAAAAAAAAAAAAAAAAAAAAAAAAAAAAAAAAAAAAAAAAAAAAAAAAAAAAAAAAAAAAAAAAAAAAAAAAAAAAAAAAAAAAAAAAAAAAAAAAAAAAAAAAAAAAAAAAAAAAAAAAAAAAAAAAAAAAAAAAAAAAAAAAAAAAAAAAAAAAAAAAAAAAAAAAAAAAAAAAAAAAAAAAAAAAAAAAAAAAAAAAAAAAAAAAAAAAAAAAAAAAAAAAAAAAAAAAAAAAAAAAAAAAAAAAAAAAAAAAAAAAAAAAAAAAAAAAAAAAAAAAAAAAAAAAAAAAAAAAAAAAAAAAAAAAAAAAAAAAAAAAAAAAAAAAAAAAAAAAAAAAAAAAAAAAAAAAAAAAAAAAAAAAAAAAAAAAAAAAAAAAAAAAAAAAAAAAAAAAAAAAAAAAAAAAAAAAAAAAAAAAAAAAAAAAAAAAAAAAAAAAAAAAAAAAAAAAAAAAAAAAAAAAAAAAAAAAAAAAAAAAAAAAAAAAAAAAAAAAAAAAAAAAAAAAAAAAAAAAAAAAAAAAAAAAAAAAAAAAAAAAAAAAAAAAAAAAAAAAAAAAAAAAAAAAAAAAAAAAAAAAAAAAAAAAAAAAAAAAAAAAAAAAAAAAAAAAAAAAAAAAAAAAAAAAAAAAAAAAAAAAAAAAAAAAAAAAAAAAAAAAAAAAAAAAAAAAAAAAAAAAAAAAAAAAAAAAAAAAAAAAAAAAAAAAAAAAAAAAAAAAAAAAAAAAAAAAAAAAAAAAAAAAAAAAAAAAAAAAAAAAAAAAAAAAAAAAAAAAAAAAAAAAAAAAAAAAAAAAAAAAAAAAAAAAAAAAAAAAAAAAAAAAAAA/9k=;" vertex="1" parent="1">
          <mxGeometry x="-805" y="455" width="458.98" height="207" as="geometry" />
        </mxCell>
        <mxCell id="KjAqN9CNKyvdz0GDKxtC-4" value="" style="shape=image;verticalLabelPosition=bottom;labelBackgroundColor=#ffffff;verticalAlign=top;aspect=fixed;imageAspect=0;image=data:image/png,iVBORw0KGgoAAAANSUhEUgAAA2cAAAGiCAIAAADskykcAACAAElEQVR42u2dBXgUSbS2xyfuRowIFtzdg7sGd1ncFsjCwuJOcJfF3T3B3T1ACCEBIiTE3Ub4K8t/uVwkJNPdM9093/vUsw8LyUx11elTX9k5gs8AAAAAAAD8DgGaAAAAAAAAQDUCAAAAAACoRgAAAAAAANUIAAAAAACgGgEAAAAAAFQjAAAAAACAagQAAAAAAFCNAAAAAAAAQDUCAAAAAACoRgAAAAAAANUIAAAAAACgGgGbUKvVqv9QKpWKX0P+lfyM+j/QaAAAAABUI+AhOTk5sbGxwcHBV69e3bdv37JlyyZPnjxo0KCOHTs2bNiwUqVKJUuWdHZ2tra2NjIyksvlEolEKBQKBAKRSCSVSg0NDU1NTe3t7d3d3cuUKVOjRo3mzZv36NFjxIgRM2fO3LBhw8mTJx88eBAeHp6cnEyUJRocAAAAgGoEHCA3N/f169dEyS1cuHDgwIH16tUjas/CwoJIQAGTyGQyoiyJrGzTps2ECRM2btx448aNmJgY9AgAAAAA1QhYQUZGxqtXr7Zv3z5q1KjatWsTgSiVSr8sFuoWolMNDAyKFi3aoUOHWbNmnTt3johIhUKBLgMAAACgGoGWSEtLu3379sKFC1u3bu3o6MgGjVjA9chy5coNGTJk165doaGh2M4GAAAAoBoBI3z48GHDhg0dOnRwcHBgeseZaQwNDcuUKTN27Fh/f//MzEx0LgAAAADVCCiRm5v7+PHjmTNnVqxYketK8VeYmpp26tRp586d0dHR6HEAAAAAqhEUjsDAwBkzZpQrV04sFgv0AzMzs3bt2u3evTspKQkGAAAAAEA1gvyIj49fv359zZo1ZTKZQC8RCoVWVlb9+/e/du1abm4uTAIAAACAagT/i0qlun379sCBA83NzQXgfyhXrtyyZcuwcw0AAABANYK8k4v79u2rU6eORCKBTPwpVlZWw4cPf/nyJawFAAAAgGrUR5KSklatWuXu7s6V0Dm6RSwWt2/f/vr160qlEsYDAAAAQDXqi15cvHixs7MztGBhkUgkTZo0uXjxIsI9AgAAAFCNfCYjI8PPz8/JyQnrixS1o7e3961bt9RqNYwKAAAAgGrkFTk5Odu2bfPw8IDmo3HPunPnzoGBgbAuAAAAAKqRJ1y9erVmzZpYX2QCY2PjcePGxcfHw8wAAAAAqEYOEx4e3rNnT9yPZjrEo4ODw5YtWxDfEQAAAIBq5B5EwaxevdrW1haqTmvasWHDhk+ePIHtAQAAAFCNnOHly5f169fHlrT2MTIymjVrVlZWFowQAAAAgGpkNTk5OYsXLzYxMYGA0yGVK1d+8OABrBEAAACAamQpoaGhTZo0wRIjGyDCfdGiRTjpCAAAAEA1sgu1Wr1//34bGxvINVaddCQiPjw8HPYJAAAAQDWygrS0tJEjR4rFYgg1FuLk5HTmzBlYKQAAAADVqGPevXuHWIwsRy6Xz5o1C0kIAQAAAKhGnREQEGBvbw9Zxond6g4dOiAYOAAAAADVqANWrVplaGgIQcYhypcv/+bNG5guAAAAANWoJbKzs8eOHYuDjFzEwcHh6tWrsGEAAAAAqpFxUlJSOnTogIOMnA7Ks2fPHlgyAAAAANXIILGxsfXr14fw4joymWzVqlWwZwAAAACqkRHev39frlw5rDLyA7FYPG3aNKVSCcMGAAAAoBrp5O3bt8WLF4fY4tnF6gkTJkA4AgAAAFCNtBEUFOTp6QmZxT9EItGoUaMUCgWMHAAAAIBqpMrr16/d3NwgsHi84jh8+HCsOAIAAABQjZQICwsrVqwYpJU+bFUjeQwAAACoRqAh4eHhpUqVgqjSk63qqVOnQjgCAACAagSFJjExsVKlSpBTeiUclyxZAssHAAAA1QgKQXp6epMmTRBkR9+QSqU7duyA/QMAAIBqBAUiNze3R48ekFD6iZGRkb+/P94CAAAAUI3g90yZMgWrjPqMtbX1ixcv8CIAAACAagT5sXXrVolEAuWk55QoUSI6OhqvAwAAAKhG8HOuX79uYmICzQQITZs2zczMxEsBAAAAqhF8T1RUlLOzM9QS+BrEcezYsXgvAAAAQDWC/0NmZmaDBg0glcB3sXhwpRoAAABUI/hf1Gr1pEmTcAMG/IiVldWzZ8/wjgAAAIBqBHkcOXIEN2DAryhXrlxqaipeEwAAAFCN+s67d+9sbW2hjUA+DB48WK1W42UBAAAA1ai/5OTkNG3aFKoI5I9EIjlw4ADeFwAAAFCN+su8efMgiUBBsLW1DQsLwysDAAAAqlEfefz4saGhIfQQKCAtW7ZUqVR4cQAAAEA16hcZGRlVq1blSvwXd3f3IUOGbN68+cqVK8/+4/r16zt27Bg9enTp0qXFYjHLH8HU1LRFixbz5s07ceLEgwcPnj9/Tv578uRJ8jdEinElsrpQKFy3bh3eHQAAAFCN+sU///zD/lA7Mpmsc+fOly9fVigUv3oQlUpFFNjgwYPZqb28vLzWrFkTFxeXT1/ExsauXr26ZMmSnAjE8+bNG7w+AAAAoBr1hadPnxobG7NcoNSoUeP27dsF3BJVq9XBwcEdOnRgT/0tLS1XrVqVnp5ewE4hP7lkyRIzMzOW90ubNm2wTw0AAACqUS9QKBS1atVisy6RSqUzZ87Mzs4u7KMRNbN7924i13T+CN7e3u/evStstJov2pfIZZbvU+/cuRPvEQAAAKhG/rNu3To2702bmpoePHiQSnTAp0+fFitWTIeiasSIEVlZWRrXPyUlpVu3bmwWjk5OTrGxsXiVAAAAQDXymcjISHt7ezZLxgsXLlAPKP3+/fuyZcvqRDJOnz49n1OYBYSIzgEDBrB5uZEoY7xNAAAAoBp5C1Fj/fv3Z60WkcvlJ06coOthIyIiPD09tfwIkydPpiuHSm5uLquOaf7YWbdv38Y7BQAAAKqRn9y9e1cqlbJ2+Wrp0qX0pq17+vSplZWV1h7Bx8cnJyeHxvonJiZWrFiRtcKxbt26SDMIAAAAqpGHKBQKMsyzVoJ07tyZ+sbudxBNc/DgQYlEooX6lytXjog82nvt+fPnrL1VTYT+7t278WYBAACAauQbZIAXiUTs1B92dnbR0dFMPDURjkOGDNFCXMkHDx4w1HHLly9nrdb39PRMSUnBywUAAACqkT+kp6ezOYj0li1bmHv2hIQEFxcXRus/ZcoU5uqfnZ3N2iw+QqFw0aJFeL8AAABANfIHPz8/Nkfz1iA0Y6HYu3cvc8GGihUrlpyczGj9L126pJ19dg2wsbGJiYnBKwYAAACqkQ8QTWNnZ8dOzSESiWi8N/0rcnJyGApsTsTo9u3bma6/Uqls0aIFa3X/pEmT8JYBAACAauQDs2fPZm1Y78qVK9N+CeannDlzholGKFOmDNMLpV+4fPkyazvRzMwsPDwcLxoAAACoRm4TExPD2oVGwr///quddlCpVJUqVeLWiczv6k8UNmv7cdSoUfA1AAAAoBq5zYwZM1grNaysrLR5A5coPHrrb29vn5qaqrX6r1u3jrVdaWZm9u7dO7gbAAAAUI1cJT4+3sbGhrVSY9CgQdoME52YmGhra0tj/SdMmKDN3oyOjjYxMWFtb44ZMwbuBgAAAFQjV5k3b56AxZw9e1abrUFvQkWxWHzv3j0t179Vq1as7U1jY2OGgm4CAAAAUI3MkpKS4ujoyFqRYWtry0Qylfw5ffo0XfX38vKiN39gQWDzJjVh6tSp8DgAAACgGrnH2rVrWXvrltC6dWvtt0lycrK1tTUt9R8/frz26//q1SuZTMbaPrW3t4+Pj4fTAQAAANXIJbKyskqXLs3mdamFCxfqpGVatmzJxe31L+Tm5rq6urK2T8ksZfny5XA6AAAAoBq5xJEjR9i80Ei4cuUKxWdUq9UPHjwYOnSoh4eHRCIxNjauUaMGEaOxsbH5/NaiRYuoV14ulzOdD+ZXdO7cmc3dWrx4cTJjgd8BAAAA1cgZGjZsyGZtQUQexa3MjIyMcePG/XS71tHRkYjmX93OvnbtGvX6V6xYUVc9O2fOHAG7IY0PvwMAAACqkRs8efJEJBKxWVg4OTlRibmTnp7epk2bfD5fKpWuXr36p1+RnJxMPafzoEGDdNW5hw8fZrlqJDMW+B2gfdT/oVKpvvwBDQK4bsywZKhGLTFkyBCWC4sGDRpQeZ2IaCtIZJyfZrhWKBTFihWjWH8dnt57+vQpyzuXiHIyb4HrAXSRnZ396dOn4ODg69evk1nTunXrZs+e/eeffw4ePNjHx4dMIL29vevVq1erVq0aNWpUq1atZs2a5M/169dv2rRpu3btunfvPnTo0MmTJ8+bN2/Tpk3Hjh27ffv227dv4+LicnNz0bxAm1owJSUlPDycuHF/f/+dO3f6+fn9/fffo0aN6tOnT8eOHVu0aEFm3XXq1CEGXO0/yB/I/5K/JP/UqVMn8mOjR4+eNm3asmXLdu3aRT7k2bNnERER5GOhL6EaNSQ2Npaua8LMQUxf4wc8ffp0AVdSnZ2dyWDz43vbvHlzivUndShUnbOysh48eEB8xJw5c8aPHz9ixIhx48bNmDGDjGGXL1+OiYkp+EclJiYKWA8SDAKNSU1NJS/L7t27ydDYo0cPIgRdXFwsLCzIPJBGE5VKpVZWVm5ubkRu9u3bl7yYhw4dIgMwTuUCGjXihw8fLly4sHr1auISW7Vq5eXlZW9vb2RkROOtA/JR5APJx5YuXbp169ZEU65Zs4Z8KdGm0JFQjQWCGCjL78EQJk6cqPGqQ6HSSU+aNOnHN2fo0KEU6//ixYuC1DY5OZlMB9u1a2dqappPp0gkkhIlSvzxxx/nzp1LS0vL/zNzc3ONjY1Z3r92dnYIwQMKglKpjIuLI3OnRYsW+fj4lCxZUi6Xk2mh9p0Y+UbyvYaGhhUqVOjXr9+qVavu3LmTlJSEoRcUkMzMzJCQkP3790+YMKFx48a2trbEt+tkOCZfSr6aVMDb25uMtqRKoaGhmBFBNf4EhUJRtWpV9q9FzZ8/X7MHDAgIKNRLaG1tnZCQ8N2HzJw5k+IqxW9XB8mXzpkzR4Mo625ubgsWLMjngjbpYicnJ/Z38datW+F9wK+IiIg4dOjQqFGjiL9i7SyIuBoLC4u6dev6+vqeOXOGqFt0HPhxIePRo0fLly/v3Lkz8d6svVEgFovd3d27dOlCpkOPHz/WfooKqEaW8uDBA5bfg/nCypUrNVvwHzhwYGG/a8+ePd99zpo1a6hU3srKKikp6VeVVKlUR44coRhVsUSJEqQrf7rIoVQqyb+yv4vr1auHRRrwLWSgun79+l9//VW5cmWiFNm/JfKdgjQzM6tfv/68efOePHlCJm/oUL2FeLZPnz7t2rWrZ8+ezs7O1K9Xav/ouYuLS69evXbv3k3mQnDUeq0ahw8fzgmr3bBhgwZPl5ubSyZzhf2u3r17f/c5O3fupFJ54ibS09N/WsO0tLQhQ4bQMhwWL178pyMTUY1lypRhfxeT2curV6/ggEBiYuLx48f79u1rZ2cn4AXkBSeOaOTIkZcvX/6VKwD8Q6VSBQcH+/n5kSmxVCrlhzHLZLIGDRqsWLHizZs35AHRy/qlGjMyMrjilzVTjTExMRoIslKlSn33OQcPHqRSeXd398zMzB+rFx8f36hRIxpbKTo6+qeqsWzZspzo5SlTpsAB6fPK4tmzZ/v06UOcEreWFQslH4sWLTpq1Khbt25hxOUxkZGRRFfVrl1bLpcLeIqBgUGdOnXWrFkTFRUF1agvsD8fzFdWrVqlwQPevXtXg+8yMjLKzs7+9nOOHj1KpfKenp4/HitOSEioVasWvZsIP70ZQ1RjyZIlOdHLpKG+a3mgD+sxL1++nDx5srOzMydOy9B1aIzMThcuXPjhwwfs9/FpIYYMFm3btjU0NOTrzOfHiRB52A4dOpw8eZI8PlQjz+nUqRNXTHPBggUaPKC/v79mK/DfXV45dOgQlcp7eHh8pxpzc3NbtWr1q5+XSqXVqlUbN27cli1bTp8+HRAQQDzRypUrBw0aREaaX8UTadSo0U+HH4VCQcZjrgylly5dwtijP0MsebOaNGnCm807zeaoXbp0uXDhAiJBcpqwsLDp06e7ubnpiVj81a7arFmz3r17B9XIT4gwsrCw4Io5+vr6avCM586d00w1RkZGfvs5u3btovFcI9F28+bN++lPmpiY/Pnnn69evfrV2fmcnJxnz56Rn7GysvpOb509e/anv0JGIzMzM6509NChQzEC8Z7ExMRFixZ5enrq8xD73ftbsWLFrVu3/vQoC2Az9+7d69GjB3HdMOOvo1jv3r0fPXoE1cg3tm3bxiFD7N+/vwbPePv2bQ2+Sy6Xk1Ht289Zu3YtlcpbW1t/e4eaSNIfZRwZNnr27PmdWs0H8oFkVufg4CCRSOzs7NatW/erfa6UlBQOdbSjo+NvI1AC7vL+/ftJkyaZm5tjcP0pTk5ORE8jdin7IRN7f39/b29vzHx+ikgkatKkycWLF/UheoC+qMbWrVtzyASJ/WnwjFFRUZqJvO8UGNFnVCovlUq/TTlD5qY/Ts527typVCoL+4DJycnBwcE/Bpj8lpcvX3LL3Zw7dw5jEv8IDw8fM2YM9GJBDooVKVJkzpw5+YTrAjpEpVKdPXu2bt26+nMMl8oieoMGDQICAvh9eFcvVCPRGdy62+Xh4aHBY+bm5mpwpK9hw4bffc4ff/xBsf7f5oYhCvLb/WUHB4ebN28y91KdOnWKW45m4MCBGJn4RGxsrK+vr6mpKQbRQmlH4hn8/Pyw9M4qvXj9+vV69erRm6xSH7Rjo0aNGB3moBoZh2IAQu0jk8lSU1ML+5jERnv27FnY75oxY8Z3H0J7Huq1a9d+uQFQpEiRhw8fMtrXS5Ys4VZf29vbIw8BP0hPT1+6dClvwi7qBE9Pz927d+OujM4hM/+OHTtyLkA3q7Sjj48PL4Py6oVq5NDt6a8z73v37mnwpIUNmkO+6MmTJ99+gkKhKFasGMX6L1u27Dsl+vjxYzIYhIeHM93Xffr04dyBmCtXrmCU4jonT54sU6YMTn3R8kbUq1dPMwcIqJOUlDRx4kTcd6EFU1PTyZMna7AGBNWoSxITE7+7gcsJ1q5dq8HDZmRkFCpaYcOGDb87vUuai/p+xIABA3S1peLl5cW5vh4zZgzGKu7y5s2bdu3aQS/SvlQzbNiwb09IA6YhY8G+ffuKFCkCY6Z3DcjFxeXAgQMaHOWHatQNp0+f5uI70LNnT82ed8eOHQX8ColEEhAQ8N2vX7lyhXrly5cvr5O+/vDhg5GREef6mihdbMlxkZycnCVLlnAopBfncHZ2JjoGeWW0QEhISKtWrXDlhbkVdDK3DA0NhWrkAFzJPf0dbm5umgUzIxOafEJqf7ci+KM7/lVsxUIhlUrzv+nMEGQ+x8W+Js31/PlzjFvc4tmzZ3Xq1MGqjBYWHTt16hQREQGTYwgyZV2zZo2lpSWMjWmsra3XrVvH9UVHnqvG7Ozs4sWLc3Rqcv/+fc2e+tOnTxUrVsz/88mA99Prit7e3rTU//jx41rua7Va3a9fP456kyVLlmD04tAS47Jly4yNjTEKag17e3syJ8SiI+28e/euadOmmPxoc8O6devWnM4ow3PV+OLFC+4uuU+fPl3jB4+KimrcuPGvPrlt27ZxcXE//hb5S7oizA0fPlzLfU1EsJOTE0f7mjhu5OflBBEREc2bN8dGnvaRSCQDBgzg2cUC3bJ//34ix2Fa2sfBweHw4cNQjWxk2bJl3DWsUqVKUTnuplAoNm7cWKZMma95b2UyWYUKFfKJsE3jDq+7u7uW04WdOXOGu31tbGyckpKCYYzNEFl/+vRpjLK6XacpXbr0gwcPYI0UIeL7jz/+wORHt0cvRo0axcUApTxXjS1atOC0YV2/fp1iCxDtGBQUFBAQcP78+eDg4HzyHZFBkcYQRcS/X7p0SZt93bVrV0739a8yawOW7EpPmzaNzLsw2ukcMzOzTZs2wSY15vXr19WqVcOuNBuoUaMG567I8Fk1ZmZm/pgBmVv07NlTaxuXkZGR9Mbo6tevn9YqHx4ebmBgwOm+njBhAsYzdhIXF9eqVSuMsqxapxk+fLiWdzP4wenTp21sbGBCrNqt5lZeWT6rxqtXr3J9Bd7IyCgkJEQ7zUXL7elvIRr048eP2qn8X3/9xXXfUalSJQxpLOTZs2elSpXixO4tmTjZ2tp6enpWq1aNyNzevXuPHDlyypQpc+bMWbJkyapVq1avXr1+/Xry35UrVy5evHjWrFm+vr5EfpHZabNmzSpXruzu7m5tbf31TAvLadCgQVRUFEy0gCiVStLpnFgvJwO3qampk5NT6dKl69ev37lz50GDBpF59T///DN//vzly5cTY177H+QPy5YtI385ffr08ePHkx/r1KkT+RXyi+TXyYdwQgPI5XLyFFy57MVn1Uh8Ig8mIqNGjdLCil1GRoaLiwvtlZ85c6YWOjo6OpoMllzvaGNj48jISIxtrCIgIICoKHYaDJmVValShQg+Igr37dt39+7dDx8+JCYmUonrkZubGx8fHxYWdv369R07dkybNq1Lly7lypUjoxo7G6F48eKIWlUQsrOzBw8ezE4JRSY8zs7OTZo0IYMdUYFnzpx5+fIl8erp6elUHpn8OvmQFy9enD59mnzsiBEjvL29iZRk56YB6RpSQ9JNUI26pFGjRjxQjURMBAUFMd1W5KViovJEzMXGxjJacyKpJ06cyIOOJr7s6NGjGN5YArGrzZs3Gxoassc8TE1NK1euPHLkyO3btwcGBmZlZWlncYJ8CxmAHzx4sH79+gEDBnh5eRkZGbFn6LWxsfkxWwH4FjITaNGiBXu6TCKRODg4tGrVavbs2WfPniXaLp8D9/RCvujjx4/kS2fOnNmyZUt7e3v25Nr+EpQnOTkZqlE3JCUl8WD96QsdOnRgdLkxLi6OTPUYqvzkyZMZrTyR1FzMB/NTcLSRJRCdNHfuXDYMJzKZjChFMi86c+YMe9Lrffjw4eDBg8OHDy9VqhT1BKS0nOTZv38/7PanREZGVqlShSX6vl27dsuXL3/8+DFLFtXI1Ovhw4ekSkSuWVtbs0FY16xZk+XnLnirGm/fvs2b0+vkQY4dO8bcmsqff/7J6D5aYGAgcxPH5s2bC/gC8ReIY6xziFGRN0KHYoi874aGhsSwN27cGBYWxuZMEjk5OS9fvlyyZEnt2rV1exrSwMBg3bp1sN7vCAkJ0e2pXJFI5OzsPHLkyPPnzyclJbF8pcnf33/YsGE638UuW7YsefGhGrXN4sWLBTyCvHgM5dS6efMm0+6+bt26TORZJnp35cqVfLrZampq+tPo60BrEEMdOnSorozKyMioSZMmW7dujY+P51zThYeH+/n51ahRQ1fykQj9pUuXIlr+V168eFG0aFFdzXyI9hoxYsT169c5l0CPVPjKlStEPjo6OurKFbi7uwcHB0M1apXOnTsL+EWrVq3IzJ7eVkpISNDOTHTu3Lm0d/G9e/eIzOJZL1+9ehWjnQ4l4+DBg3UyxHp6es6aNSskJITrooeMuI8fPx43bpxOwqFLJJIFCxZAOH6RjExccPwtZM7QokWLw4cP8yBtQXJy8oEDB5o3b66TwypEOL569QqqUXt7TLqaYzF97o3GHczs7Gwaw3rnj1wuP3HiBI3ePCIigpddvHDhQgx4upKMQ4YM0fLSgkwm8/b2Jq8GJ+5OFoq0tLR///23SpUqWt7rJ1+3aNEiPReOL1++1LJkJC+OjY0NGaHevHnDs8Ynj/P69euxY8dqP5wCGeNIe0I1aoMPHz7wMiSvSCQiqoIW4ahUKkePHq3NyltYWNy9e5eW/o2Ojq5cubKAj3Ts2BECTicrZCNGjNDyZnSPHj0ePnzI+4Y9f/588+bNtbltTfzkypUr9daYic7Q8oza3d3dz88vISGB3w0bHx9Pxl83NzdtqgtPT0+2JY/hp2o8evSogKeQmfScOXMoTua+nPfXfuXt7OyIcKRY+aioKL5KRsF/B1ih4bS/lvD3339rLZQd0U/9+vV7+fKl/rQwmejeunWrRYsWWmtkmUy2fft2PTRm4h61dv2FiCcXF5d169alpqbqTwunpKSsWrVKmzdmypUrFx0dDdXILFOnThXwmsGDB2t8aiQ5OblHjx66qrmZmdnBgwc1E47kt4joJFM9HvcsmRUg1reWWbx4sXbUDNGLnTt31iu9+B3Xr1+vX7++dlpbLpcfP35cr5o3Li5OOzNqIpiKFCmyZMkSvU3qmJGRQfyGnZ2ddsaFqlWrsieOIz9VI5nUCvhOlSpV7t+/X1jVde/evYoVK+q25hKJZMKECYVVvTk5OeQtpTdTNgsh7vj06dNQclpj3759Wtg8Jd1ao0aNy5cv46KGQqEgbV68eHEtvE3m5uZ0nYphP9nZ2c2aNdNCqxoaGo4ZM4Y90UN1yMePH0eNGmVgYKAFB9K2bdusrCyoRqa8kqOjo0APIJPpESNGvH///rdDEfmBiIiI4cOHa8G+C0ixYsX27NlTkEsAubm5Z86cYUmgWi0wZ84cuGPtcPXqVS3MQ2xsbDZs2EB7AAROk5aWNm3aNGNjYy0c+Xj79i3v21OpVA4cOJDpPVORSNSoUaNnz57BgL/lyZMn9erVY3oFnXTusGHD2BDQl4eqMSwsjD3aSDszvx49epw4cSImJuY7+Uj+NzY29vTp071799aCg9aAkiVLzp07l7ihH2dRXwIIL1u2TOeLo1qmS5cucMRaICQkhOnppVgs7tmzJ8szPeiQFy9eNG7cmGmtU6lSJfZnaaPIggULmFYt9vb2W7Zs4VzwRa2tVW3atInMD5kWjn5+flCN9OPv78/LC9QF2Y6pUKFCx44dB/1H586did6ytLRkf80lEomLiwuZxfbq1Wvo0KF9+vRp0qSJm5ubbrNN6IpSpUohQwzTpKamEjHBaD86ODgcPnwYXZk/ZHK4YsUKpld8yUxMa5mOtc+JEydkMhmjDdiuXbvw8HCY629XrFq1asWo/DAwMDhz5gxUI80sWrRIAACX1X9MTAxcMKMLAz169GDOuZNPJpM3Vl17ZDmvXr2qWbMmoz0yc+ZMXh4qffnypZWVFXPuyMLCYtOmTZj8FBDSUOvWrTMzM2OuR+zs7F6/fg3VSCf9+vWD8gDchYxwDx48gP9ljqVLlzK3nWdsbLxs2TJs5BWWjIyMCRMmMLe9IJPJTp06xbNGS0pKYnTJnHz48+fPYZyF5fHjxxUqVGCuXypXrkzeF6hGeiCzyerVq0N5AE6zc+dOeF6GuHnzJnPnnt3d3W/duoVG1th7Hz582MLCgrmTeR8+fOBTc/Xv35+htiLTKvLhPMgKqCtI0/Xs2ZO52ekff/yhq7VzvqnG1NRUneQ/BYBG/vrrL7hdJvj06ZOHhwdDK8Te3t44WkCdFy9elClThqE3q2HDhrwJMbh161aGWsnQ0HDFihUwRYqoVKqlS5cyNEcVi8U7duyAaqSB9+/fay39AAAM0aFDB/hc2lEqlQzFtyeScejQoenp6WhkusQ9Q6EHSU/NmjWLB0306tUrho4zWltbnz17FkZIF6dOnTI3N2eop0JCQqAaqXLhwgVoDsB1ypcvj4NxtLNlyxYm7ltIpVLqST7Bd2RnZw8YMICJJQCZTHbjxg1ON05mZmbt2rUZOmIRGBgI86OXR48ekYZlor/q1aun/UCwfFON69atg+YAXMfMzExvU3UxRFhYGBMH5gwMDDZv3gzJyAQKhWLKlClMCEcvLy9On9ibOXMmE26nYsWK7969g+ExQWhoKBPnLsg0eP78+VCNlBg/fjw0B+A6xBfAfdOrP5jIMkok48GDB9G8zEHkOBkUxWIx7e/X2LFjubtwZWhoSLsxV69eHUkCGeXjx49VqlShfbvD1NT0yZMnUI2a0759e2iOwu3XSAQmBgIrU4GDpcDFRuDpICxbVFi1mLBuaaF3BVHLKqJ21UWdaol86op61M8rvRqI+jQSf/kzKV3qiDrUFLWpJmpeSdSwnKhmSWElD2EpZ6GbndDJWmBnLrAwFhjKBGKcNS0kly5dgp+li/Xr1zPhrI8fP4621YJw9PPzoz0ij0wmu3z5MudaIyMjo1q1akxsdCYkJMDYmCY2NrZWrVq0d1+NGjVyc3OhGjWkfPnyEBzfTKkFViaCEk7C2l5Cou2GNBdP6SJeOlCybaz0+N/SawtkT1fKgtfL32+RR++QJ+yVpx2UZx+R5xw1oF4yD8tT9svjdssjt8lDN8lfrpXd95MFzJIemCzdMEIyt7dkXDtx74biZpVElT2FrrZ5yhJ8y5YtW+BkaSEiIoL2TF8GBgbHjh1D22pNOC5ZsoR23V+2bNkfE5mynMWLF9PeDkTHxMXFwcy0A2nqypUr0z5erFy5EqpRQ+fCaEx2diIRC0wNBa62wvplRP0ai6f5SDaOlJ6dISWK8NOuPOmWcYg2LUh7yT6Spy+JWk3aJ3+3RX5rkeygr5To2rHtxB1riSq6C23M8gSlHiaInDp1KjwsLT7Bx8eH3q6Ry+X79+9H22q5H2fPnk3vGccvCWM41AghISG0p16sUKECVhm1THR0NO3LW5aWlm/fvoVqLDSfPn2SSCS814guNoJ6pYWDmooX95ccmyp9vCJPHRL5xU5dSLEQyRu2WX59gWz7WOnUruLOtUXl3YSWJvxXjb169YJ7pc7Zs2fp9Qnk09avX4+G1T5KpXL8+PH0rrSZmZkFBQVx4vFVKhXt569KlizJp7DnHOLdu3e0B47t2rWrdhI/8ko1Pn78mH/BGqViQRlXYa8GokX9JedmSkM35S3LsXbtUAsl87A8Zqf8yUrZrgnSSZ3EzSuJ7Cx4uBhZv359+FaKZGRklCtXjt7VqenTp+PGtK5QKBQ+Pj70CscOHTpwIsnyiRMn6J3/2NravnjxAkalK54+fWptbU1jh4rFYn9/f6jGwnHy5Ekm4rFp/3qKm52wc23R4v6SK/NkCXv1VyAWeJtbHrJRfmCydEIHcd3SQitTPohINzc3OFaKLFmyhF7J2L9/f0hG3ZKenk4mVPR265kzZ9j/1F5eXjQ+tbGx8bVr12BOuuX8+fOkI2js1jJlymRnZ0M1FgJOB2v0cBD2aSjaOkYauFqWdhBKUXMFGbNTfnmebHZPSePyIjMjrtqDubm5DvPT84DY2Fh6k2fUq1cvNTUVDatzwsPD6d3dq1ChghbGWiosW7aM3lMWmzZtgiGxRLTQuNRFPmrNmjVQjYVg2rRp3FIGRnIBUTaLB0ierpSlHeDt2URdlawjeZe4T06Tjmot9nQQciv6j6GhIRkd4VU1ZvTo0TS6YxcXl4iICLQqS7h//76RkRGNYy2bz6rGxcXRGATgS6xKLJmzBNIRw4YNo9FTOTk5MX0jnleqcdCgQZwQBCYGglZV85YVI/6FUtTeacg7S2RTu4q9XLhxikEsFj9+/BheVTOCgoJovG1KFPyVK1fQqqxi06ZNNEb/Llq0aFJSEjufdNKkSfQumbN8YVXfSE9Pr1OnDo1dPG3aNKjGgtKqVSuWS4HSLkK/QZLQTXp9nUW3JfWA/Op82cCmYqLd2QzRtto52szL6XufPn1o7IgFCxagVdmGUqns168fjW8cO3v53bt3NGbCtLe3DwsLg/GwjTdv3tC4nGxubv7x40eoxgJRtWpVdioAiVjQorLIf6Y06zDEIouOPy7qJylqy96Fxx07dsCfasCzZ89kMtqixrdp00ahUKBVWUhKSkrp0qXp6mhra2sWLjcOHz6crgeUSqXIZsRaDh06ROPaOaMJM/mjGlUqFe0BkGihQVnR5bmyLCwusrLE7ZYv7i+xZWVs+KVLl8KZakC3bt3o6gI7O7vIyEg0KWu5ffs2jUmZZ8+ezbaFRhqPbw4bNgwGw+YdkoEDB9K43MhcJE7+qMbU1FR7e3t2XYM1FqwbLkk/BL3I9hK2Wd6hhohtq46+vr5wpoXl+fPncrmcrqOlyAHDfmbMmEHXUWUHB4f4+Hj2PNrIkSPpciYlS5ZMSUmBtbCZhISE4sWL09XjEyZMgGr8DdHR0axKJ1jUTvBgmQyCjENJaGb2kLBKOQ4aNAietLDQeNatR48enIj/rOdkZmZWq1aNrk5fvHgxS54rPDycrhGNzKMuXboEU2E/AQEBdMVyt7S0ZOh0I39UY1hYGI2HmaheupQJ7i6FZORepJ5hLcXsUY2dOnWCGy0UNCbqtbOzi4qKQpNygvv379M11hYtWjQtLY0NDzVlyhS6PMnw4cMRaocrDBgwgK5+ZyjNOn9U4/Pnz9kTUqW/txi3pLlYwv+VG7PmbnWjRo3gQwvF+PHj6bo3vWXLFrQnul5XJCQk0HXgytnZOTExERbCFWJiYpycnOia+qanp0M1/pJr166xZ5Xor85iKDAulsS9cgcLtlhRpUqV4EMLTnJysqWlJS0tX69evdzcXDQph4iPjy9atCgtvV+hQgWlUqnbx1m9ejVdInj37t0wD26xdetWkUhES+9v3LgRqvGXnDp1ij2qsYSTMG431ho5F47HYO9EKXusqGTJkoj5UnBWrFhBS7MbGBjcvn0b7ck5tm/fTstYSz7k/PnzOnwQlUpVokQJuvYrMP/hHKTLateuTYsBVKxYkXYD4I9q3Lt3L6suwNbxEoZthnDk0qHGPX9KjeUsMqGiRYsiFXUBycnJKVOmDC2z84EDB6I9uYhSqaxVqxYtr17Hjh11+CBnz56l5bSVXC6/e/cuDIOL3Lp1i5bwjWQKdOHCBajGn7Nx40aWBU4RFLUVnpwmhSDjxMb0qDZiqZhd9mNnZ5ecnAwHWhACAgJocbImJiZI/81drl69SosZGBsbv337VldP0a5dO1ocSO/evWESHEWtVvv4+NBiBl27doVq/Dl+fn4C9iEWCQY3E0dsQ75pti4xHpYHzJJ6ubAxQ4y5uTmrosexmS5dutDS5lOmTEFjcheVStW+fXtaLOGff/7RySOEhITQEtnb0NAwNDQUJsFdXr58SWYvtBy5oTdVAX9U45w5cwRsxdFKsGmkJO0gNqzZVd5ukvduKJaIWWo2xO/HxMTAe/4W4hNpCbhjZ2eHBuc6Dx48IMMkdWNwd3fXyYnA2bNn0+I9Ro0aBWPgOkOHDqXFGBYtWgTV+BOmTp0qYDFCgaBGSeGFOTJE5GHJlvSsnhIrEzabTF5uEoQM1No+g1Ao1NXyEmDnwnNAQICWa050Ki33YMzMzMLCwmAJXOft27e0JMwsXbo0jWEB+KMa6YrXxTRtq4vuLIF21KVeXD9c4mzDCWMRvHv3Dq4zf9RqdYUKFag3tY2NTWxsLNqTBzx58oSWoN89evTQcs2vXr2KhUbwLUOGDKFlAeLGjRtQjd9DY8pOppFJBD51RY+Wy3DYUZsl9YD83zGSUs5CAXcIDg6G39SORJg8eTIakze0bt2auklYWVnFxcVxTiIYGBjo8CoPoJdXr17J5TSE9iACCaqRkfdNy9qxc23RvaWyzMNYd2R8fXHjSEkJJ6GAawQGBsJv5g9Re7TcmY2IiEBj8oarV69Sj90oFAp37NihtTqnpaXZ2dlRN+ZevXrBAHiDWq3u2rUrdatwdnamK1Umf1Rjv379BBxELBK0qiI6N1OacQjakf7ycYd8UX+Ju71QwE0ePXoEv5kP2dnZJUuWpN7OAwYMQGPyCYVCQUvsxjZt2mgtg/OJEyeoh2kUi8UPHjyAAfCJGzduUN9OIabl7+8P1fh/6N27t4CziISC6iWE28dK0w5AO9JT3myQT2gvtjMXcBoMAPlz9+5d6vH5pFLpvXv30Jg8Y8eOHdRFmKmp6adPn7RT4T59+lD3GA0aNNB5OkRAL6RDa9asSd02Bg0aBNX4f+jZs6eA+zhaCf7pLgnegPiOmh9ePDdT2rGWSCLigTkIkNoufyZNmkS9kevXr6+19SSgNdLT052dnambx/bt27VQ2+TkZHt7e+rrSQcOHEDX84+dO3dSt2Rra2tagknxRzV2795dwBeM5YIudUSn/5GmI8RjgcuHrfKlAyXl3YQCHgHVmA8qlcrLy4tbZ9eANqHlzGunTp20UFV/f3/qK6MuLi50nV0DrCIjI8PGxoa6r7t8+TJUIz9V4//0saC4o3BWT8nr9bIs3Jj59eLimX+k3euLTAwE/AOqMR9evnxJfaAl828k++YrwcHB1A8wmJuba0GKDR8+nLq7mDRpEjqdr4wdO5a6hZAPgWrks2r8ikQsaFpRtGW0NGIbtOP/L5mH5ff8ZJM7ibl70wWqkSKLFi2i3sJktEZL8hW1Wt2wYUPqKzSnT59mup4uLi5UD8eLRGQehU7nKw8fPqR+J6ZkyZIKhQKq8f/D6dswBcTSRNCltmjfRGniXv2Vjy/Xyub0llT2FLI2EyCN3L17F+7yVzRq1Ii6IIAu5zdbtmyh/hoyHTQ7MDCQ+qp59erV0d08hqi9KlWqUDQSmUz24sULqEY9Uo3/e7PPMO/g464J0shtcn1IM5N2UP54hWxWzzyxKBLqTz/jDvUv+fTpk5mZGcXmLVOmTE5ODhqTx8TExFhYWFC0k1KlSjGak3rRokXUVePKlSvR3fxmyZIl1O1k+fLlUI3/n/79+wv0DzMjQbNKohWDJYGreXj2MWGv3H+WdFw7cRlXoVikh92LeI2/hJbgdtOmTUNL8p6OHTtSX6EJCgpiroZNmjSheoHS2Pj9+/foa37z9u1b6nliWrduDdX4/xk8eLBAj5FJBKWchaNai49NlX7aJeeogsw+Ik8/JH+5VrZqqKRdDZGNmUAo1OdeFTx//hy+8qeMGTOGYttKpVKIcn1gz5491CcYmzZtYqh6iYmJ1tbWFKvXqFEjRI/SB6gHbiTGlp6eDtWYBy130PiBXCqoVVI4uZP45DTpuy0cUJBJ++RPVso2jpT0aiB2t0cH/i+vXr2Co/wRhUJRoUIFim3r5eWFeMj6QFJSkrGxMUVr8fHxYah6Fy9epC5qV69ejY7WB5YuXUp9WLlx4wZUYx6jR4+GyPgREwNBeTfhoKbidcMl95bKUvbL2bGmaBD+r/z0P9KZPSRtqomcbQT6uQH9W0JCQuAofyQqKor6Ts3EiRPRknpCixYtKFqLi4sL9cunP2XGjBlUlwnkcjgKPeH169fUE6zPmzcPqjGPCRMmQGTkj0goMJILKnkI+zUWLxkgOTVdGrxBFr9HnsnkYmT2EXnqAXn0Dvl9P9nO8dIpXcStq4lcbARSMTrk9+Cs0k85evQo9ba9fv06WlJPWLduHUVrEQqFwcHBtFdMrVY3btyYYt0qVqyILtYTyNSlfPnyFA2GTKKgGvPw9fWFyCi0KxQIbM3zFiPbVBONbiNe3F+ye4L08jzZs1WysM3yuN0F3d3OPmKQdkD+cbv89XoZUYdEj24YIfmnu4TI0/plRJ5FhEZyNHbhVb5IFBkZCUfJxBTR1tY2OzsbLaknvH37ViqVUrSZrVu30l6xtLQ0S0tLihWbOnUqulh/+PPPP6kfbaTi/fijGqdPnw6dQRcScV5WQ0sTgb2FwMNBSGRlrVLChmVFTSqIWlQWtaoqalZJ1Li8qH4ZYbXiQi9noYuNwNYs70K3gVQgEqL96IGMcx8/foSX/JFatWpRbNsuXbqgGfWH3NzccuXKUbSZwYMH016xBw8eUF8EvXr1KrpYfwgICKB4EFYikTx58gSq8fOcOXOgMwCfMDQ0jImJgZf8jszMTOqXG5i7EgvYCfVL90R30l6r1atXU6yVjY0NxSuxgFskJCRQv3RPxQHyRzXSkl4MAPZgamoaGxsLL/kd9+7do3geXCqV4nK6vnHs2DGKKzTkffz06RO9terTpw9FL9GyZUt0rr5B/SwslYVz/qjG9cuWyYTYHAX8wdHCIjE+Hi7y+zd9/XqKDVusWDGkhNE3oqKiTExMKO4FX7t2jd5alS5dmqIxL168GJ2rb1DfWa1cubLGAT75ohrV6sQhQ246Oc2xtGxkYGAhQhwXwEmI4XpIJL1NTHbY2r52dc25eRMu8juGDh1KsZF79OiBZtRDqF8+XbFiBY31SUhIMDIyouQuRKJbt26hZ/WNq1evUlw4t7Kyitd0SYInqlEZFfWpePGYokVJiXZ1DXJ23mtn94epqZdUiuVHwH6MhcImhoazLS2vFCnywdX1iyWTkjxqFFzkd1SrVo3iitGaNWvQjHrIsGHDKL6n/fv3p7E+RPBRPGthbW2dmJiIntU30tPTZTIZRTeocWYsnqjGtBUrvg6035bookWfOTmttbHpYWzsKZHIIE8Aa7AQiWrJ5RPMzY/b23+rFL8tn4oVU8XFwUt+JTk52c7Ojkqzi8Xihw8foiX1kJ07d1J8Z6tWrapSqeiqz4YNGyjWp27duuhWTJ41Y9u2bXqsGnNy4urX/+mg+22JdHW97ei4ytqaKMhiEgmCTAPtYyoUflGKh+zsXjk7R//OaMkPpG/YABf5laCgIIlEQqkLTE0zMzPRkvppPBTfX1tb25SUFLrqQz2f2bhx49Ct+smIESMoGo/GybH4oBqzL16MdnP7rWr835HY1TXC1fWJk9NmG5vBpqblZTJDXKMBzEAmJzYiUTNDw78tLE7Z24e4uHz8xbLir0p848afcXXjfzh27BjFHqlZsyaaUT/Jzc21srKiuK9HY4aYRo0aUazM3r170a36ybZt2yh6Qo0zxHBfNarViYMHF2oY/rG8cnY+aGfna2HhbWDgKEZKZEAJI6HQSyrtYWy8zNr6cpEiEYWUid9PctzccpD77n+YP38+xd4ZPnw4mlFvadCgAUX7OXHiBD2LHdnZ7u7uFFUjAkjpLU+ePKF4IYaYn2bXqDmvGpXh4TElS1JUjd9uCIa5uNx0dFxrbT3Y1LQqliFBwSCTjRaGhlMsLMj047mzcyQ1pfhdwZ2Yr/Tv359iT23Ajr8eQ31TeMmSJbTUJDo6mmKwevLrCoUCfaqfJCQkUFw4F4vFmp3V4bxqTP/FPRhaFGS0q2u4q+vFIkX8rKz6mZhUksksRQjqAwQGQqGzWNzU0PBPc/MdtrZPnZw+urpG06oU/08pWVIZHQ1HSWbGderUodh3d+7cQUvqLZs3b6ZoP3TlFXzw4AHFtaJq1aqhQ/UWlUpVsWJFisb8/Plz/VONSmVc7dpMDdU/05FvXFyIiFxtbT3M1LTuf9vZWIrUBwyFwpJSaXsjo78tLPba2d13copgTiP+rKSvXw9HmZub6+zsTKUf5XI50u3oM7du3aLoCho1akRLTfbv30+xJn379kWH6jPdu3enaELHjh3TO9WYfelStBZH7h9v1bxzcXns5ERkxHQLi87GxmVlMmOhELezuY5UILAXi+sZGAw1NV1ube3v4PDa2ZnIRB0aW3zDhmq9341KSUmheIHa09MzOzsb443eEhkZSTGwtru7Oy01WbBgAUU3tXDhQnSoPjNr1iyKJrRs2TK9U42JgwbF6G4g/2n54Op6vUiRbba2UywsuhgbV5TJ7MRiCYQYiyFCv6hE0sDAYLCp6SIrq2P29s+cnKK1u5RYoDsxdGcz4xyBgYEsWSgCHCUrK8vV1ZXicjUtEw/qKY6OHj2KDtVn9u3bR9GERml0Yp7DqlH54cOnUqXYphp/XI986+Jyz9HxkJ3dQiuroaam3oaGxSQSOcSajrAWiSrJZJ2MjSeZm6+3sTnv4PD8v3VElhtS3p2YESP03EueOXOGYu+ToRqDjZ5Tu3ZtincIwsLCqFejRYsWFI2ZTKLQm/rM/fv3Kd6zaNeunX6pxvTly9k/0v9UR0a5un5wdSVS8oCd3SIrq+FmZq2NjMrLZLYikZFQiNs2tGwxmwmFrhJJbbm8u7Gx738C8ZyDw6v/bjd/1Oles+bFy0sZGanPXnLjxo0UDWPRokUYbPScPn36UDEhoVB448YNinVQq9XlypWjUg0TExOc0NVzPn78SPG4ReXKlfVINaqzsmLr1eOiasynRLi6PnVyulCkyA5b2/lWVqPMzDoaGVWXyz0kEtzd/vlukVDoIBaXlkobGRj0MTEh6nCVtfURe/ubjo7Bzs7RXFhBLNydmHXr9NlLTp8+naLB7N+/H4ONnkPdig4cOECxDiqVimLYFDc3N6Q40nOUSqWNjQ0VK3JyctIgeBNXVWOOTu/BaHltMtzV9Y2Ly7P/BOUuW9slVlYTzc37mZi0MjSsKpMVlUiMhEKJQEBkJZ8udIv+S6wiFQisRKJSUmk9A4POxsbDTE3/sbBYa2NDpOFtR8dXzs6hLi5RvFOHvyqxDRqolUq99ZKDBg2iuEqEsDtgy5YtOrlD8H82ytLTKYbdqV69OroSVKhQgYoVWVhYxMfH64tqTOrfX0+EQgGV5Zv/Tk/6Ozjss7NbY20929Jygrn5QFNTorS8DQ2ryGTFJRJnsdhOLLb4bx9cJxd0iJuUCQQmQqG1SFRELCZ6t4xUWlsub2Vk1NPEZLiZ2RQLi0VWVltsbI7a218pUuSpk9MHvVGEBSz6nCemTZs2VMzPwMDg7du3GGn0HH9/f4qKzdfXl2IdwsLCKPrSTp06oStB69atKbrE0NBQvVCNyvDwTyVKQEAUVllGuLqGuri8cnZ+4uREJOa1IkXOOTgQfbbb1naTjc0Ka+sFVlazLC2nWlhMNDcfbWb2h6lpfxOT3iYmPUxMuhobdzI2bm9k1MbIqLWRUVsjow5GRl2MjbsZGxPB18fEZJCpKZF948zMJpubT7ewmGNpucTKiujXf21t99vZnbS3v1CkyE1HxwdOTs+dnYOdnd8VPiMzSt6dGD1OiFe9enUqLtLS0jIxMREjjZ7z9OlTsZhSeLQBAwZQrMPdu3d1cvsV8IwhQ4ZQ3H559OiRXqjGtGXLoiEgUPSyfNLjOzFubm4UD/GoVCqMNHrOx48f5XJKQSxat25NsQ4nT56kqBrnzZuHrgQzZsygaEgBAQH8V43qzMzY+vWhHlD0tqSvXauH/lGhUFhbW1Pxj+XLl8cwA7KzsynePK1VqxbFOmzfvp3iYL9582Z0JVizZg1FQ9q7dy//VWP2hQtYaETR5xLfuLFa/xKcJCUlmZmZUfGP3t7eGGYAwcHBgYohlSpVimIFli9fTnGwP3HiBPoRHDx4kKIhrS38GgT3VGNCv37QDSj6fidG//LEhIeHGxoaUvGP3bp1wzADCGXKlKFiSC4uLjk5OVQqQDH6Dy0xIwEPuHTpEkXVOHfuXJ6rRmVkZIyHB0QDir7fifnjD33zj0FBQTKZjIp//EP/Gg38lDp16lAxJHt7+9TUVCoVGDduHJUKSCSSZ8+eoR/Bo0ePKKrGyZMn81w1pi1bBsWAgvKpRAlVdLRe+cfHjx9TvPpKPWAK4AcU45VYWlrGxcVRqQDFyKOaBUwB/IOYAUXVOKLwiWq5pBrz8sHUrQvFgIKSdydmzRq98o83b96kGGZPg70YwEu6d+9OMZtfJLU4Bt26daNSAWNj42g9mzSCnxIbG0tRNfbp04fPqjH7/PloNzfIBRSU/38nJitLf/zjhQsXKPrH5cuXY5gBtCz1vXv3jkoF2rZtS6UCpqamycnJ6EeQlpZGcQemc+fO/FWNajXywaCg/G/Y9qJFc65c0R//eOrUKYqqcdOmTRhmAGHMmDEUjxW+efOGSgWaNWtGMRFctv5FUQA/kpGRYWxsTMWW2rRpw1vVqPzw4VPx4tAKKCj6eSfm8OHDFFXjjh07MMwAwqRJkyheYX716hWVCtSvX59KBaysrBCvHhCysrIsLS2p2FLTpk15qxrT/PygElBQ/s+dmOLFVTExeuIf9+7dS1E17t+/H8MMIEybNo2iLT1//pxKBWrWrEnl2+3s7NCJ4PN/Ievt7e2p2BKZwPBTNaqzs2Nr1oRKQEH5/k7M6tV64h937NhBcaQ/fPgwhhlAmDlzJkVb0iB777dQzKju5OSETgSEnJwcZ2dnKrZUt25dfqrG7ICAGNyDQUH5ocQ1bPiZWsBh/VGNx48fxzADCHPnzqVoSw8fPqRSgcqVK1P5diIU0ImAFtWoQXpMLqhGtToR+WBQUH56J8bNTU/uxGzduhWqEdDCvHnzKNrS3bt3daga3dzc0Ingi2okxgDV+D3KsLBPJUtCH6Cg/LQk6cedmG3btkE1Apaoxvv37+tQNbq6uqITwRfVSIwBqvF70nEPBgUlnzsxpUopqcUc5gTUd6iPHj2KYQYQ5syZo9tzjVWrVsUONaBFNVLcoa5duzbfVCPuwaCg4E4MYdeuXRRH+kOHDmGYAYQZM2ZQtKUnT55QqUCNGjWofHuRIkXQieDzf3eoHR0dqdhSvXr1+KYa8+7BQBagoORbYuvW/axU8ts/7t+/n+JIv2fPHgwzgDBlyhSKtvTixQsqFahTpw6Vb7e2tkYngs//xWu0sbGhYkuNGjXim2pM7NsXmgAF5bd5YrIvX+a3fzx27BjFkf7ff//FMAMIEyZMoGJIIpEoODiYSgUaN25MpQKWlpa5ubnoR5CZmWlmZkbFllq2bMkr1Zh3D6ZECWgCFJTf34kZMoTf/vHcuXMUVePatWsxzADC8OHDqRiSTCYLDQ2lUgEyVFOpgLm5eXp6OvoRZGRkyOVyKrbUoUMHXqnGtKVLoQZQUApUvLyU4eE89o9XrlyhqBoXL16MYQYQ+vbtS8WQDA0NP3z4QKUCHTt2pFIBExOTuLg49CNITk4WCoVUbKl79+78UY3qzMy42rWhBlBQCnonZtUqHvvH+/fvU/SP06dPxzADCJ06daK41BdDLZMnddkazuspIiggkZGRFOfSgwcP5o9qzPb3j0Y+GBSUgt+JqV9fzd88MYGBgRKJhIp/HDt2LIYZQPD29qZiSDY2NomJiVQqQH2LPCgoCP0IXr58SVE1jhs3jj+qEfdgUFAKeycmh793Yt6+fWtgYEDFP/br1w/DDCBUqVKFiiE5OjpmZGRQqcDkyZMpXsehGGYc8INbt25RVI0a7MCwVDUq37//5OkJHYCCgjsxX4iJiTExMaHiH9u2bYthBhDc3d2pGJKHh4daraZSgfnz51Mc7M+fP49+BKdOnaJoSH5+fjxRjWlLlmB7GgVFkzwxERG89I8ZGRkWFhZazp0F+AcRfBSDlVSqVIliHdavX09xsN+7dy+6ElDPs6pBPDI2qsb09PRuXl6zLS1vODpGuLpCCqCg/GZv2tU12MXloJ3dEDOzdfPn89VFOjg4UPGPnp6eGGZAUlISxaMO3t7eFOtw4MABioP9ihUr0JVg0aJFFA3p+PHjfFCNp0+f/nJZUiwQlJJKh5mZ7beze+viAnGAgvLdQcZ7jo5+1tatjYxsRKIvXqBMmTLZ2dm8dJHk0aj4R1tb26ysLIw0es6bN2+kUikVQ+rWrRvFOly8eJHiYD9lyhR0JRg/fjxFQ7p58yYfVGOXLl2+ezAiIc1FomaGhgusrO78twAZjTVIFH1dVgx1cTlibz/SzKy0VCr7wQuQGdfVq1d56SIbNWpEMcpdVFQURho9hwyTFEM4jR49mmIdAgMDKQ72uNoFCN27d6diRRKJ5NWrV5xXjTExMUZGRvk8J3ndi0kk/UxMttnaPnVygnxE0YfywdX1cpEicy0tmxgamv/PsuKv6N+/P1zkT10kGa0x0ug5Bw8epKjY5syZQ7EOsbGxFOvQpEkTdCWoV68eFSsyNTXVYCLNOtW4cuXKQiweCIVVZbJx5uaH7e3fYwsbhXcb0I+dnFZZW/sYG7tKJOICvxdmZmapqan8c5Fjx46lONYGBARgpNFzli5dStGKtmzZQrEOCoWCYiK40qVLK5VK9KaeU7RoUYqHdjRITcku1ahSqSpVqqTZ8xsJhXUNDP6ysDjl4PDGxQVrkChcLJGurkQpbrKx6Wti4imRiDR6F4RC4datWzHe/8iGDRsw0ug5o0aNomJC5OU6d+4cxTqo1Wo3Nzcq1bCzs0tOTkZv6jMpKSkUowGUKFFCg+9ll2p88OABxXPKX7AWiRoYGPiamx+zt3+DNUgUdpePrq73nZzW29j0MzH56VFFDWjYsCHFkHIsZN++fRSb5a+//sJgo+e0atWKYoTtZ8+eUa9G7dq1KR63QFJBPScoKEgmozRcNGrUiPOqcdy4cQJaEQoEZkJhTbl8rJnZHju7IGfnKKxBorDgRkuEq+tNR8dl1tbdjY09JBI5teP5P2JgYKDBMWeWc+PGDYrN0rlzZww2+oxKpfLy8qIo1+Lj46nXxMfHh6Ix8/XSGyggAQEBFO919e3bl9uqMTU11dnZWcAkUoGgrFTa18RkjbU1GbPfQ0GiaFEpvnR2PmFvP93CooWhYRGxWMAwGqSKYjmRkZEUvWSlSpWIbsB4o7ckJCTY2NhQMSErKytaauLr60vxBd+8eTM6VJ9ZvXo1RROaMWMGt1Xj8ePHhXSvuOQ3ZRQInMXi5oaGUywsDtvZvXZ2hrJBoX3r+baj4zobm8GmppVlMguRSKBFihcvnpOTwycvmZWVRfEcD1EMvLwnBArIq1evRNRew8qVK9NSE+rpYSZOnIgO1WdGjhxJ0YS2bdvGbdXYsWNHge6Q/RdRvIex8SIrq/P/3af5iJVIlEKuJoa7uj5zctpjZzfJ3LyJoaGtSCTWnUmTOdjly5f55CWVSiXFQN+kTUJCQjDe6C3Hjh2j+Fp16dKFru1FijVp2bIlOlSfady4MUUTunbtGodVY2xsrKGhoYA1mItElWWyfiYmO0qWjG/d+lPZslBFKD8p7u6xNWu+b9duioVFayMjD4lEKmARAwYM4JmjbNu2rfYzaAHeMHv2bJYkZXn79q2Y2jEVV1dXdKjekpmZSTHsDiE6OprDqnHt2rXa3J4uOD179lQrlark5NznzzP27UuZNi2hU6dPZcoQuQDNpI/FwyO2du2kwYPTli3LCghQhoerMzJiP32iGH2NIaytrXkWnuPPP/+k2CazZs3CkKO3/Jh4TDubej+SlJRkZ2dH8TZ3QkIC+lQ/CQ8PpxhwxsLCQrND3qxQjaTqtWrVErASMjf9scJqhUIRFpZ19myan1/S0KFxjRphMZK3GrFKlfj27VN8fTO2bcu5c0dF3PQPEW3ItM/d3Z2F1ktmYrt27eKTr9y0aRPFNunYsSOGHP2EDDQlSpSgaD937tyhpTJqtbpChQoU3+5Lly6hW/WTM2fOULTk6tWra/bVrFCNgYGB7FyqIezdu/f3779SqYyNzX3yJPPAgU+VKkFscbcQ9R/fpk3ymDHpa9ZkBQQoQkNVaWm/DXxIfqB+/frsNOCWLVvyKXAj9STCRYsWxZCjnyQkJFDcFDYwMPj06RNd9enWrRvFt3vJkiXoVv2E+lkLjVOZs0I1Tps2TcBW7t+/X6hniWvUCNqLA8XNLaZkydgqVRI6d06eNCl948bsixcV796ps7LUGuXpGjhwIDsN2MjI6P3797zxlVFRUSYmJpTuvclkERERGHX0kAsXLlCPS5CdnU1XfebMmUOxPj4+PuhW/YT6CW+Npxy6V425ubnUdw2YG3ELG38fqpGNpVix2Bo14tu2TRo5Mm3JkszDh3MePlRGR6vpS+Q6d+5c1s58li1bxhtfSdyFh4cHxX29EydOYNTB8owGtGrVisb6HDt2jOLCebFixRQKBXpW31Cr1RQPxRI0Toype9VIfcuJORwdHQub2xuqUcelePG4Bg0Se/ZM8fXN22U+eTL36VNlTIwqPZ3Rjdq9e/eyVjVWqVIFk+xv8fX1xcCjh1DMJUjjBeovBAcHU8wIZ2Bg8PbtW/SsvhESEkJRNcnl8g8fPnBVNQ4dOpS1w23FihULKzWgGrWgCz9VqBBbq1be2uHQoSkzZqRv3EjUYd7y4cePNC4fForbt2+z1oyJf3nx4gVvPOaMGTMoNkidOnUw8OgbGRkZ1JdnDh06RGOVlEqlra0txSrt378fnatvbN26laJq9PDw0PishUDnb7KDgwNrh9v27dsX9omgGmkoJUrEVqsW16RJQpcuSX/8kfL332krVmTs2ZN94ULu06eKDx9UiYlqlu3LhIaGknk/ay156tSpvPGY1JNIWVpaxsbGYuzRK+7fv0/xKoxMJgsKCqK3Vt7e3hRf7eHDh6Nz9Y3+/ftTNJvWrVtr/O06Vo0nTpxg7fY0YcyYMTxTjXHe3on9+yd07hzfokVc/fqxVat+Klv2k5dXTKlSRKvFFC8eU6xYjKdnjIdHXkBKN7e88uM9kl/9JSnkt8jvkk8gn0M+sGRJ8uGfSpf+VL58bM2acY0bx7dtm9C9e9KQIcnjx6dMn562dGn65s2ZBw5k+fvn3L2rCA5WxsbmXVvOyiK6kEOXf9PS0qysrFhrySVLluRNdsHw8HCJREJx8fX8+fMYe/SKJUuWUD+wlJubS2+t/vrrL4q1KleuHI426hXECIsVK0bRbKiErdWxauzevbuAxWhwyYjlqjHNz++7CqtVKnVmpio5mcg1ZVSU4t07RUiIIigo98WL3KdPScl59Cjn4cOvJffx41/9Ze6zZ7kvXxLlpwgNVX74oIyOViUk5ElAfmVD/ilE4FK8pcEoYrH4xo0bvGltV1dXig0yefJkDD96RYsWLXS4PJPPwjnFWpEZFJ+CJIDf8uLFC4rHYcm0WeOrMDpWjfHx8dbW1mxWjQUJ1sh11QjogrUhG78watQo3jQ19QwfVapU0SwvAuAiSUlJ1LcCmMgqFBERQXHfnPDvv/+ii/WHNWvWUDQYQ0PDjx8/clI17tq1i83b04Tr169DNYIC0rNnTzYbs7Ozc0ZGBj+aeuXKldQXXyMjI2G0esLZs2epjzWXL1+mvWK5ubleXl4UK0YmUehi/YF6KIBy5cpRqYAuVWObNm3YPMqKRKLg4GCoRlBAqKdIZhreHOZ79OgRdRGwadMmGK2eMGrUKOrLM6mpqUzUjfrNBhsbm8JGiAMcJSkpydzcnKLBDBs2jJOqMSEhgbVZBL+eFyE9BNUICgj14/ZMM3DgQH40dVpaGvXYC23btoXR6gMqlapo0aIUraV27doMXc7bunUr9QWOgIAAdLQ+cOzYMZ0cvWOFatyyZQvLh1gzMzMN3ARUo96ye/dulpu0ra0tbzap27VrR7E1yJQ9Li4Odst77t27R3QVRWv5+++/GapecHAw9QUUiqtHgCv07duXoqlIpVKKh3N0phqbNWvG8iG2WLFiGjwXVKPeQj3LLdMIhcKTJ0/yo7WXL19OvTX27dsHu+U9vr6+1E3l0qVLDFVPoVBQz6nr5ubGmwkh+BXp6enUw8JXqFCBYqgm3ajG8PBwExMTlg+xtWrVgmoEBefp06cC1tO7d2/etDaZNFNsjQ4dOsBu+U12dnbJkiWpL9InJCQwV8k//viDuq69ePEiupvf0BLfety4cRSroRvVuHHjRvaPr+3atYNqBAUnMjKS/Vbt4OCQnJzMg9bOzc11d3enfgolOjoapps/SqVy6tSpHWiiV69eiYmJWqv89evXqYe2adWqFaOVPHr0KHU1MGjQINjqbwkMDOzRowddxrxmzRptVp56fGuKkRp1phrVanXz5s3ZP75qdnUAqlFvyczMpH58Sgub1KdOneJHgw8ZMoR6g5AZLEw3f4KCgqgLr28tsHPnzrQnWfkVw4cPp17hVatWMVrJlJQUinGbBf/lycQm9W+hfpv+WwwMDE6fPq2dmn/69Il6zFFra2vqq+Y6UI0fP340NDRkv2qcOHEiVCMo1OqXhYUF+w27b9++/Ghw6nk1CDVq1IDp/natkd55PtFhTETM/pHU1FQbGxvqwTTevHnDdFWpJ6Qm7N69G+aaP/fv3zc1NaX3iqEGEfo0gJYd2jZt2lCviQ5UI/VAA9ph3rx5UI2g4CgUCuoBPrQAmW5mZ2fzoMGJJqB+PFosFgcGBsJ6fzvVp5769ruLnFq4mEVLWAOKIZELyIoVK6hXtUmTJrDV37Jp0yYa184F/yWaYiiW57fUrFmT+myNlq0VHajG1q1bc0I1rlu3DqoRFByVSlWhQgVO2La/vz8/2rx9+/bUW2P06NGw3t9y7949MzMzGo3Qxsbm1atXzFVYrVbTkuRz2rRpWmjekJAQ6pvUBgYGmAIVxDBGjhxJ79p57969KV5Mzp/Hjx9TP/lKtDKVRII6U43x8fH0rg8zh2aRMKEa9dkZsTwV9Vf++OMPfrT59u3babkhxOgNWd6wbds2ek/uVqpUibmbMY8ePaKuw8jzks/RQtsqlcrq1atTb9IJEybAUH9LdnZ23bp1abRkYidLly5lrsK0nOGuU6cOLZXRtmrcv38/y3NPf0WzSwNQjfqsGqlnCNUORYsW5ccmNZk6U8+vRTzS+vXrYcAFsfBRo0bR68C7devGUM6VoUOHUq9e6dKlc3JytNO8CxYsoN62dnZ2GqQ000Pev3/v7OxMoyXL5XKGgnpGR0dbWlpSr+Hy5cs5qRp9fHwEHOHq1atQjaBQUI+MoB3EYvH169f50ea0pLMvW7as1m71cprMzMzGjRvTu7tH1BLt9YyMjKQ+nSBMnTpVa237+vVrWrLsrl69GoZaEMgQb2RkRKMxFylS5O3bt7TXc968edTrZmhoGBYWxj3VmJycTD17rNbQbGMCqlGfoWUfQTv4+vryo8137dpFfYWGfMKJEydgwAUhIiLCxcWFRlM0MDA4e/YsvZWcOXMmLVd2Hj9+rM22pX7jgVCiRAmtrY9ynVWrVtG7dl6rVq20tDQaa0g+jZZLlt7e3nQt6mtVNZ4/f54r29MEza7TQzXqM+PHj+eKeZcvX54fq2spKSm0BDyqW7euSqWCDReE69evGxsb02iN9vb2ISEhdFUvNTWVeuI1QuXKlbVsEqtXr6Zl+VazQ/l6iFKpHDBgAI2yhHwU+UAaD11s3LiRllnxli1b6KqSVlXj6NGjBdyBTKmhGkGhmDp1KlfMWywWv379mh/N3rdvX1oahExrYcMFZM2aNfSGL6latSpd4UuWLFlCiw5g9H7DT4mOjqZlz5ToXX4cXNYCxOpq1KhB780Yug4JkE6knqOcQObVsbGx3FONZNLm6enJoTH106dPUI2gUMyZM4dD86Jly5bxo9kvX75MS4N4e3srlUqYcQH9+cCBA+k94Ni/f3/q7Z+UlETLBrpcLtdJtslOnTrRIlwOHToEKy0goaGh1KPBf4uxsbFm9yK+499//6Vl/tOrVy8am0t7qvHZs2cc2p42NDSMj4+HagSFws/Pj0OqsWHDhvxo9pycnNKlS9My1lJP0qo/ZGVl0btIQwYIP8oOat68ebQMNES96aRVz5w5Q0t4I1zwKhT+/v4GBgY0GrOjo2N4eDjFRdDixYvT8lpduXKFk6px4cKFHBpQzczMNAskBtWoz6xZs4ZDRm5kZMSbOIULFiygpU2qV6+O040F5+3bt2R0pNEm5XL55cuXNa5PbGwsLScayUBL1JtOmjQjI4OuNDzbt2+HiRbKh9AbjrRevXpUMoPTdVPHy8uL3vmD9lRjgwYNODSgWllZJScnQzWCQrFp0yYOGTlxSYcPH+ZHy0dERNCSuQQ3CQrL+fPnaYkX8xUnJyeNQ4T8+eeftNSBDLRZWVm6atI5c+bQIhc8PDxSUlJgogVEqVR269aNXgc7fPhwzWahiYmJ9vb2LFm/141qjI6O5kpKmC/Y2dlp9r5BNeoz27ZtE3CKgQMH8qbxe/XqRUubFC9eHGNtoaDr9slXateurUH4kqCgIFpudpNnWbx4sQ7bMyoqytDQkJYHIQIU9llwkpOTy5cvT+/NGM1SP0+cOJGWClhaWtKSRVAHqvHQoUMcOtT45VCCZlGXoBr1mT179nBLNXp4eOhwTYVe7ty5Q4uTIR8ye/ZsGHPBUSgUPXr0oNcyhwwZUqg6qFSqjh070nU8SbOrkDTSs2dPukTDu3fvYKIFJzAw0Nramt6DQHfv3i1UHV6+fGliYqKT94hFqpHe23ZawMXFJT09HaoRFIr9+/dzy87FYrF20uxqAbVaTVduWVNT0zdv3sCeC7VIU7lyZXoXadauXVvwCpw4cYKuSEAjRozQeXvev39fIpHQ8jg+Pj6wz0Jx/PhxqVRKozG7ubkVPJAfmYPRlZmWmBARwZxUjdnZ2XQd74VqhGpkMwcPHhRwDd1uxrF2T6NNmza4FlMogoODraysaLRMExOTa9euFeSr09LSPDw86LqO8/LlS503plKppCtzIxHTurrZw12mT59O7+4o6c0C7urs3buXrks5LVu2ZKJxtKEayUtI79UkLVC0aFHNbj9BNeozhw8f5pxqbNq0KW/an/jlsmXL0jXW7tmzByZdKI4dOyaTyeidvUdFRf32e+m6BEPo0qULjYk9qHDq1Cm6Vk9LlCiRlJQE+yw4OTk57dq1ozdnzLhx436vH+Li6ApKQEQXlXAEOlaNy5cv59xQ6ubmlpmZCdUIeK8ajY2N6crJwQa2bNlCl68n7jsyMhJWXShmzZpF7xpBgwYN8p/AX7t2ja5L3ETy3rlzhyUtqVQqq1atSlczjho1CsZZuKE8Ls7Ly4ve40Dbtm3L5xtVKlWfPn3o+rr69esrFAquqsbWrVtDNUI1QjWyFn9/f950AVEY7u7udLVM586dYdWFIjc3t3379jQaJ5kDjB49+lfrf2TCU6ZMGbq+q2XLlixZaPzCgQMH6Ho0qVR64cIF2GehePLkCb2xX8zNze/fv5/P8EHXYVaiUE+ePMlQszCuGrOysiwsLDg3jrq6umKHGuiJapw0aRKfemHjxo00SpatW7fCsAtFQkICvYs0IpFoy5YtP/2u4cOH0/gtt2/fZlVLKhSKSpUq0fWAZDZFYzJiPWHPnj303oz5VS9ERETQEqDxC7Vq1WIuOSrjqvHGjRucO9SI2zBAMzh3h/oLVapU4VMvkPkeLZm4vmBlZcXEPUTeL9LQfjPmx/AlNK7NEFq1asXCljx06BCNA6iPjw9Du5Z8Ra1WT5w4kd6bMS1btszOzv5uhb5FixY0znXPnj3LXJswrhrnzJnDxXHU2dkZqhHoiWokQ3JB7hxwiG3bttHo6KtWraqZN9Dzd4He9QJPT89v4xWHhITQuDYjk8nu3bvHwmbMycmpWbMmjeupa9asgXEWCqLwvL296T104evr++1ZiLlz59Lorxo2bMho/AfGVWOjRo24OI4WKVIEUb5BYdm1axcXrZ04rKNHj/LM0dMbPnDgwIEIxFNYyNBI7yINGby/LNJkZGRUq1aNxk/u1asXa5vx/PnzdF2mJhgYGNy6dQvGWSiio6PJpIXemzFfM5eePXuWxpycUqn0+vXrjLYGs6oxISHBxsaGi+Oora0tMgqCwrJ161YBNxk7dizP+uL06dM0SpbCBp0Gn/871E7jvtsX/vzzT6VSOWjQIHrX2oODg1nbjGq1mt5m9PDwKHjQafAFIrXpvRljYWHx9OnT0NBQGpfMCV27dmX6RhezqpFoXm4lEvyKpaWlZgGuoBr1mQ0bNnBUNVatWpW509O6onnz5jQ2kZGR0fnz52HkhSImJobeFA8SiaRdu3b07n2z/zYYkRcGBgY0PnLdunVx6KKwbNmyhV7DK1myZLly5ej1UVqY/zCrGufOncvRQZTMKhISEqAaQaFYtWoVRw2euBsywPOsOx4/fmxoaEjvFgQbEodwi/v379OVVJehI+zx8fHsb8YRI0bQ++C9e/fGzZjCQuOdfSaYPHmyFhqBWdVI+/aE1iATu7i4OKhGUCiWLFki4Cy8TDs2duxYerc7SpYsybObQ9pZpKHxZB69J3q5ElkpOjrawcGBxmcXiURTp05lVXxK9pOenl6vXj127qC6urpqttTFItWYnZ1taWnJ0RGUmIVmSy9QjfrM7NmzuasafX19+dcjxI26uLjQ21BVqlTRbEqptxBpMmbMGBaOtQ0bNszNzeWQ+Ka3DYlw5FMaeu0QERFBu0uh93oNh1Xj06dPBVzmw4cPUI2gUPz111/cNfj69evzslOIM6VdrzRo0ECz23J6S1ZWFjEwtm0oPXv2jENtqFAoaG9DiUSyefNm2GehuHLlCr1HX6jTqlUrrR1MZ1A1rlu3jtOqMSgoCKoRFIoxY8Zw1+BNTEy+iz3LD4gzbdu2Le17Ec2aNYNwLBTh4eGurq7s2U2aOnUq59rw6dOntB8Slcvl+edHBj+ycuVK9qQvISYREhKitWdnUDX27t2b06rx0aNHUI2gUAwePJi7Bk+c4I/pN/jB27dvmQgB5u3tnZycDLMvOFevXjU2NmaDtVeoUEGziLw6Z9asWbSvnctksk2bNsE+C45KpRowYAAbDl2QOixbtkybz86UalSr1SVKlOC0aiQODqoRFIpu3bpx2uZXrVrF167ZsGEDEy6+fv36OONYKFavXq1zO5fL5Tdu3OBoA2ZlZVWtWpX2NiHCkcevPxOkp6fTm0pA49MyWt4jYko1RkREsGROqTGnTp2CagSFmim1atWK0zbfu3dv9E5hJ/oVKlR49+4d7L/gHTFo0CDdLtJwcW/6W548ecJEMCOxWDx9+nT+xW1ldBOjSJEiOrRkCwuL169fa/mpmVKN/v7+HI3v/ZU9e/ZANYJCDYf16tXjtM2XLl2ax3nzPnz44OjoyES7ubm5PX78GK9AAUlNTaUxt3JhqV69emZmJtfb0M/Pj4lzdWTUHjJkCA/aR2vQmw+wsJ21ceNG7T8yU6pxzpw5Ao6zYcMGqEZQcIjeqlSpEqdt3sTEhN/BCA8fPiyVSploOisrK57l8mYU2hOpFXxt5vnz5zxowNzc3JYtWzKkRZo0acK/mP/MsWDBAu2vkZFv7NKli07itDOlGjt06MB11UhMAaoRFBylUunh4cF1s7906RK/u2ns2LEMNR3Ro3PnzuVQ/D/dEhAQQG+WvILc9+LTZeGPHz86OTkx1FbFixd/8OABrLSAnl/7J9pJB8XGxurkeRlRjTk5OVy/CiPQNDkPVKPeQuSClZUV183ej+8WkpGRUaNGDeYWADp16oT7MQVk4cKF2gxf0q9fP56lQvH392due9TCwoIriXN0TkJCQvny5bV5nevmzZu6elhGVCOZA+lqp59GBg8eDNUICk5WVhY706YVil69evG+pxg9w06Eo5ub27Vr1/BGFGSRpmfPntox7GrVqqWmpvKvDRcsWMCc8iafTKR2YmIibPW3BAUFaWfVgHTK6tWrdfikjKjGixcvCrhP+/btNXj2xF69YooXh2rUQ6Kionhg9mTGrA+XKBldpBH8l3fk77//xq2C35KSklKuXDmmrdre3l77V021pry7du3KaOuVKlXqypUrsNXfcvjwYYlEwvRxxv79++vWRTOiGpcvX661A6HMnUKtVauWBs+uzslRxsXlPHyYuW9f6uzZiQMGxDVoEFOiRIy7O1Qjv3ny5Amjpq6dd8rIyIij0Y8Ly9KlSxltVfLhVatWffjwIV6NX3pLtfrIkSMODg6MmrRMJgsICOBxMyYlJVWsWJHpLdGJEyfqiWfQuBcGDx7M9IkLIkt03guMqMaBAwdqZ4Rr0aKFra0tQx/u7u5Om3PMyVG8f59z61bmoUNpK1ak+Pom9usX37JlbK1an8qXz9OUDMlEN7dPXl6xVavGNW6c2Lt3ypQppA54vZlbvmLO1Lt06aK1zKdPnz7Vh/5SqVR//PEH03L8y3BLRhS8IN8RGhraqVMnpkdZsVis2+087fD27VtnZ2emPUOJEiXOnDnD4+BcGi/3Hjx4UAvZMt3c3CIiInT+vIyoxurVq2thbDMzMwsKCmIoANuXRRem14GJmlQlJCgjIhTBwTl37mSdPZu5f3/65s1py5enzp6d8tdfyePGJQ0bljhgQELPngk+PglduiR07pzQoUPef8mfu3UjWpD8a9KIEcl//pkyfXrq4sXp69Zl7N1LPirn7l1FSIgyOlqVns6zM+Ds5N9//2XO2hcsWPDXX39pRzXu2rVLT7osIyOjefPmWmjS4sWLHzhwAMPt12ZftGiRFg6BkSnBhAkT9KTZb968qYXMGhKJpHv37kTxw4y/8PLlyzZt2mjhUhd5X1hyq51+1UheUaLntOAOFi5cSL6OuVgn5PWIjo5m1W7O/0el+vpHvLTsgdEYpStWrEhJSSldurQWJM6UKVP0p9eSkpK0E2WTjCsNGza8e/euPr+2CoXi8OHDJUqU0M6JiypVqugkoJ2uOHTokHbuoZqYmEyfPj0+Pl6fHX5MTMyYMWOMjIy0cxhv8+bNLHlw+lXj+/fvtXCTtGrVql9yLzJ3kpr0E84kgYIzZMgQ5gx+06ZN5CsuXLighZerY8eOetVxxGVpLVKYVCr18fF59uyZvr0dKpXK39+/Tp062oyHLJPJzpw5o1ftvHbtWqYvZHzF0dFx2bJlZDarb8ZM5PKcOXOYOx33U6pXr86SpqZfNZ4/f14LR4Xu3bv35euIG2Lui44dOwYxBApIs2bNmDPFAwcOfPkWLRwa9vLy0re+CwoK0mY+WUNDw549e+qJdlSr1efOnWvUqJHW1My3kG4NCQnRH0smrT137lytSfMvcab8/Pz05KJMQkICaV6d5J4mTT148GA2HLegXzWuWbOG6bb7dgetbdu2zH3X8uXLIYZAAZ01o+tVFy5c+PJFcXFxxE0zfWJYDy9LPn36VMuDgUgkIu6L9Cxf08mkpqbu3r27SpUqAp1StWrV9PR0vfJFf//9t5Zjx9ra2k6bNu39+/d8bdU3b95MnDjR3Nxch5ZMxM/atWt5qBrHjx/PaMOVLVv223VaRpdeRo0aBT0ECgKxSUtLS+ZM8dt7zUxHBZPJZMHBwXrYiffu3dN+cmSiHYmuWrduHZ9OiYWGhs6YMYNMb7Sfn/enDBkyRK+OkyqVykmTJmm/8U1NTXv16nXlyhXe3EAiMzp/f/9OnTpp5/xiQU6U3tJ1IBT6VSOji39ksLxx48a3X0cmVcx9XYsWLaCHQEF4/fo1EVvMTTFjYmK+XUtgNKMG+bqvS5v6xqNHj+zs7HSyimBhYdGvX79Lly5lZWVxd+60f//+li1bajnB9G8Ri8UbNmzQK0smus3X11ebCRu/be3SpUsvWLDg3bt3HJWPpNpk5jxr1qxixYrppA3zwcPDIyoqileqsWzZssy11/jx47/7uvXr1zP3dcWLF9erK3hAYwICApizQ0tLy++22IiIZC7mFGHjxo1625VPnjzRQui1fHBzcxs3btzVq1e5klomMTHx+PHjffr0sba2FrAVExOT27dv65twnDFjhg7TnEql0oYNG65evfrt27ecWOslLRYUFLRs2bJatWrp5BhuAWnSpIkOj7XQrBrT0tKYOxvk5eWVnJz83TeeOXOGub4hs/9Pnz5BEoHfsmLFCkavp/zoI/bv38/cePD333/rc2+SkaNYsWK6HRhEIhERr/369SMdHRcXx8JWCgsL27BhQ/v27W1sbFiyE/3bRZrY2Fh9E45EA+lQOH7B0NCwevXq//zzz507d1h4ipdUiUzSpk6dWqlSJbYtk/8KHcZHo1k1RkREMBRolPTltWvXfurfGXVYjx8/hiQCv2Xo0KHMGWGzZs1+/EYyd+/Tpw9Dxt+7d28979CoqKhq1aqxQQyROkgkkooVK44bN+7QoUPv37//EnRM+6SnpxN/u3379kGDBnl6ehJdywmx+G1LtmjRQletp0N27NihhQDgBewCc3Pztm3bLl68+ObNmwkJCTrZwiZfSmZiRFHMnz+fmISpqSm3LPnLOu7XwBrcVo1Pnz5lqPUnTpz4028kZmdhYcFc3+hPngxAxQcxGgFq5MiRP/3e2NhYhtKINWjQAN1KfAsZ3tg2nJDRgii2du3a/fPPP0REPnv2jKF0hWRaQgzs/v37xAcS99u0aVNibGw746WBapk6daoeGnNAQADbzg98OctbtWpVMglZuXLlpUuXwsLCGFqJzMnJCQ0NvXDhwvLly/v371+pUiUt5CJhGtKhL1++5LxqPHfuHBOtU65cuV+FTlAoFIwmzJg0aRKGT5A/aWlpDg4OzBlhPol0jx8/zsT2E3mnmE6nyQnIYDN8+HA2SyWJRELGPw8PD29vbzL6Eim5cePGY8eO3bx589WrV1FRUampqZmZmVlZWdn/QZ7oyx/I32RkZKSkpERERLx48eLatWuHDx9es2YNEVV9+/atV6+ei4uLiYmJzjc3mWixo0eP6qExkwmG1rLyaCYiDQwMbGxsKlas2LFjx7Fjxy5evJjMWPz9/R89evT27du4uDhisT8aM/lf8pfkn8gPEGn48OFD8is7d+5ctGjRmDFjOnToUKFCBSKwyIdzbkHxt5BH037ob5pVIxOpeI2Nje/evZvPlxILY3RzEIn7QP6EhIQw54/IJ1+5ciWfBaE//viD9m93dHQkagM9+6WF165dy5K4G5rZj1wuNzc3J+OxnZ0dmd6Q/5JBlGhN8vf8G0fZvEijc2JiYrSTeJ0hyByGvIlWVlbEmB3+w9bW1tLSkogE/k1vCkjPnj21fGeXZtW4YMEC2l3enDlz8v9SMr1mrkvI8KmH52BAoTh48CBzFkgcYnh4eD7fnpiYWLJkSXq/1MTERN/uDeTP5cuXnZycBIAvVK5cWQ9T4RGysrLGjx+vtxqLf4hEomXLlnFYNf7555/0tkjdunV/q6NPnDjB6Iz53bt3GDVBPvj6+jJnfp6enr/dLL558ya90SKJJ+JxmgfNiIyMbNKkiX4uzvEP0o89e/bkTTDqwnLgwAE2h0kChYI4/3z2o9iuGvv3709jW1hZWQUFBf32S0NDQxm9La+rm0qAKzRs2JA58+vcuXNB6vD333/TK2gQPeBHcnJy/vnnH7lcjoFKV8sq9ArHFStW6K0xv379ulatWpgF8cOYXVxcPnz4wEnV2KFDBxpPMGzdurUgX0rmi0WLFmWud38MLQ7At0qC0et4S5YsKUg1MjIy6tatS+P3Xr58GZ37q91qT09PDHtaXhqsXbv29evX3d3dafxYY2NjbS7SsA3iNKZOnSqVSmFg2sTAwGDGjBnr1q2jVzg2bNhQO2mlaFaN3t7edDVBr169Cn4NpVu3bsz1cY0aNTBSgl/x4MEDRq/CFDzr6Js3b6ysrOj66uPHj6Nzf0VSUtLAgQMx3GoHou1mz55Npmek5e/cuWNiYkLvIk1ERIQ+G/PVq1e9vLyw6KgdypUrR2z483/X7IYNG0Zvs48ZM4ZjqpG0Qs2aNWl5eA8Pj4SEhIJ/9Zo1a5jrZlNT0/j4eIyU4KesXLmSOdszMjIq1GWs7du30+WGdu/ejc7N392dPn3azc0NAyGjkEk7mZh92/Lr1q2j9zJHo0aN9PzKI5kFjR8/HrMgRpHL5b6+vt/ewUpNTaVLMn3dodWC36ZTNapUqkqVKtEyUv40DUw+BAYGMjpVOn/+PIZJ8FM6derEnOE1bty4sO9gv379aHkXtmzZgs4tyHA7duxYQ0NDDIq0Y2lpuWTJkh/DPhO9PnjwYHpX9IlmQoS1W7duVa1aFYuOtCMSiYg6/G7y84V3797Z2dnR+F0WFhaPHj3ijGpUKpXUA24Tk12wYEFhvzonJ4fRo436mU4A/Jb09HSGsrN8Yf78+YWtUmJiYpkyZah/9dq1a9G/BeT+/fv16tXDcEsXEonEx8cnLCwsn/eO6Bt6vxGL64Ts7Gw/Pz9bW1sYIV3Y29sTX/rlfMVPOX36NL0X7EqVKlWorVpdqkaFQkGqS/GBW7VqpVnIyj59+jDX8bVq1dLbGA0gH8j0kbnEIUSFEDmiQa3IXJN6VOp8EtKAn05cd+3a5eLiAu1I0eYrVap0/vz53/rb169f07tIY2ZmFhgYCEsmREREDB48mChpGCTFLekRI0Z8/Pjxtw0+c+ZMev1G586dmUvuxS7V6OHhERMTo9m379u3j7nuJ2NwVFQUvAn4DtrD2n+Lm5tbRkaGZhXbuHEjxbNf+hyURGPS0tLmzp1ra2sL7aiBXvT09NyyZUvBR7uTJ0/SG6a0dOnSOML+lSdPnrRp0wbaUQOIWXbo0OHFixcF107t27en920ijogDqpHiDrUGxxm/hag6RgOgIGoj+A6VStWoUSPmTG7AgAFUXkby61S0C9YaNebjx48TJ040NzfH8FlAHB0d/fz8NEjWMn36dHpr0rVrVy3nZ2O5i7tw4ULDhg3ZnIqdVZCGatq06fXr1wt7TDY2NrZ48eI01sTAwODcuXMcUI3ly5fXWBpTH6VojPvzI/369YMTAd+SkJDAXHh58kYcO3aMSvVSU1OrVKmicQU2btyILqZCZGQk0Y6WlpZYd8zHyJ2dnZcuXZqcnKxZI+fk5LRu3ZreKmlwsJ7fkJH9/PnzRDti3TEfSOM0a9bsypUrGh9mu3//Pr0rX3Z2dkxktqM58k6NGjU0e7z+/ftTv8K2Zs0a5hw06YAfb/MBfWb//v3M+SArKyuNh9KvvHnzxt7eXrMK7Nq1C11MnZiYmNmzZ7u4uGBY/U6clS1bdsOGDWRuQ72F6V2kkcvl/v7+MN0fx/fr16937NiR0UxsXMTQ0NDHx6fggXXzYevWrfQu69auXTstLY29qpHQuHFjDR6sZs2atCSSj4iIYDTiFHln4DvAV3r27MmcsXXt2pWWSmp8QY/iSif4FuLfyHhAS2AyfmzhnThxgsY8Fvfu3aNXyjg5OeVzg1vPteOrV6/GjBmDAxhf5vYTJkwIDg6msXmHDBlC7/Rs2LBh9EaVolk1dunSpbBP5erqGh4erlvZWkDGjh0LrwG+6gAbGxvmjI1G0bZy5UoN1uAxR2KCW7du9evXj8YUPtzajCZDbFBQEBMNu2nTJnpDf3fr1g3mmg9paWkbN26sXr26HsYGl8lkderU2bJli8a3FfOBfGbt2rXpffVu3rzJXtU4YsSIQj2PqakpLeu63/oO5mzF09NTO3keAfs5ceIEc5Zma2tL47YCmWgOHTq0sI7m9evX6GWG+PTpE/FUDRo00IcR18jIqH379gcPHqS+GZ0PSqVy8ODBdJ1QkkgkM2fOhKH+FpVK9fDhQzIZcHV11YeZj4eHx6RJk548ecJoJL6QkBAHBwcaRxPygexVjfPnzy/U8ZH9+/fT7o4tLCyY21vBAgz4osN69+7NnHv6448/6K1wZmZmy5YtCz6mGhsbk1cJHc30iBsaGrp48eLq1avLZDI+XZohz0LEYtOmTYk4jo6O1k575ubmxtJEQkICAvQW1sNcvHhxyJAhRYoU4dmFa/I4Tk5Ow4cPv3z5stYyT6akpNBlzOnp6fTWjWbVWPCgiaQnli9fzkRzM3rajJgOEk+B+Ph4a2trhmxMIpHQu6HwhcTExIKn03BzcyPDADpaaxD5uGbNmhYtWlhZWXFXPpKaE9Hg4+Ozc+dOjSPvAk5DdNWVK1cmTJhQrlw5eqNpahm5XF6+fHlfX99r167hIiyDqvHx48cFmWcQ5zJp0iSG5Nf58+fpPeDyLcQn0q7cAefYu3cvc96qYsWKDDmp8PDwYsWKFaQO9evXRy/rhLi4uLNnz/7555+VK1fmSqATAwMDYjD//PPPjRs3aLnXCHiAQqEIDg7euHEjmUXQuN/K9LTHycmpe/fuW7ZsCQkJQeRObajGhISE367BkI4ZNWoUc+luyIjr5eXFnGEdPnwYdqPnNGnShDm3tWrVKuZq/ubNG3d3999WY8yYMehl3UIm1YmJiWfOnJk6dSqxNzLusucQJJGJLi4ubdu2nTdv3pUrVzCRBvlDhvugoKDNmzcPHDiwfPnyZmZmLNnFJtUwNzcnVRoyZMi///5LZC5OJmhbNRLq1Knz2zNbTK/3+vn5MWdnbdq0gd3oM2FhYcwtAhF/ymjieQJx30WLFs1fue7btw8dzSoyMzNfvXpFpqzTp0/v1KkTGecsLCy0s5dNRlY7O7sqVar06NFj/vz5p06dCg0NxZ4d0JhPnz7dunVrw4YNw4cPb9SoEZnHam0vWy6Xe3h4kC8dPXr0xo0b79y5ExcXhx7RsWqcMWNGPt5nzJgxWnA38fHxzGUXJPNs4jRhOnoL7UnMvmXYsGFaeAQiHPMJjGxkZBQREYGOZvniTUpKCnFEFy5c2LRpE7HJgQMHNm/evFKlSs7OzsbGxmR0JCMxmd6IxWLieL/Tl8L/IH9P/pX8DPlJ4tZMTU3JdKJq1apkYjx06NDZs2dv37796tWr4eHhaWlpWIMBDJGVlUWk25MnT8ikyM/Pb8KECT4+PvXr1y9VqpS1tTWxTGKfUqn0qyXnY8zkx4jlk1+xsbEhv04+pFu3buPHj1++fPmRI0fIVxBtgEAorFONz58//+mxQtKdZJ6qNdczcuRI5oZ24qNhOvoJGT7d3NyYmweT10c7D0J04a8yOXl7e6OjOQ1xs0RTki4m0wMyUt6+fZuIv0uXLgUEBPj7+58/f578+fr163fu3CH/+ubNm6ioKGLYuOcHWEh2djbRlGSCFBgY+ODBgxs3bly+fPnixYv+/0H+QP735s2b5J9evHgRFhZGfjgnJwftxiXVSGjYsOF34xAR/ocOHdLmgxEDMjQ0ZGh0J7qB0dhjgLUcOHCA0cMP2hy5ibDo06fPjweMyKQcHQ0AAEBLqvH+/fsmJiZflxg7der0/v177T+bBolqCg6y9OohSqWyXr16zAXcuXTpkpafiIhUooPd3d2/bvq0aNGCuZtqAAAAoBp/wsWLF/v37z9lypR79+7p6tnIVzN3a6Fq1ao46KNv3Llzh7n7B0SP6sqiUlNTySxoyJAhkydPxtlwAAAA2laNLKFFixbMLTdqf2UI6BC1Wt21a1fmAu6cOXMGjQwAAACqUWfcvn2bueXGZs2aYblRfwgMDGQuPESdOnVgSwAAAKAadQkZidu2bcutzG+AhajV6v79+zNkSGKx+OzZs2hkAAAAUI065sGDBwYGBsxdesXVAX3g1atXRkZGDFlRkyZNYEUAAACgGllB7969mcuacP36dZgRv1Gr1cyZkEQiuX37NhoZAAAAVCMrCAsLY26hqHHjxoiOy28CAwOZOx3r4+ODFgYAAADVyCL+/vtv5m6/njhxApbEV5RKZZs2bZjLOh0SEoJGBgAAANXIIhISEphLBFexYsWMjAwYEy8JCAhgbqFx2rRpaGEAAABQjaxj9+7dPyZPo4tVq1Zhn5p/ZGVlVa5cmSGbKVasWHJyMhoZAAAAVCPrUKlUTZo0YUgB2NjYREdHw554xurVq5k72HD06FG0MAAAAKhGlvLixQtjY2OGdMDAgQOx3MgnIiMjyWSAIWtp3749rAUAAABUI6uZM2cOQ6mEpVLp+fPnYVL8QKlU9ujRg7mV6bCwMDQyAAAAqEZWk5GRUa1aNYbUQJkyZVJSUmBVPOD48eNisZihGJ/r169HCwMAAIBq5ACPHj2Sy+UMCceJEydi55HrJCQkuLq6MmQhTZs2RSYYAAAAUI2cYe7cuQztU0skkitXrsCwuItKperbty9DktHW1hZ70wAAAKAauURmZma9evUYUgYlS5aMj4+HbXGUffv2MbQ3TT52+/btaGEAAABQjRwjJCTE2tqaIeHYq1cv7EJy1CqYuzfdr18/nF4AAAAA1chJ9uzZw1zc702bNsG8uEVmZmadOnUYsocSJUogpjcAAACoRq6iUqmGDRvG0AFHU1PTBw8ewMI4ZAzjx49nSDKamJjcvXsXjQwAAACqkcOkp6fXqlWLuZRxSBjDCdRq9fbt25k7zrhx40Y0MgAAAKhGzhMaGmpnZ8eQcGzWrFl2djYameXcu3fP1NSUIRsYPHiwSqVCIwMAAIBq5APnz583NDRkSDQMHz4cN2PYzLt375iLzlinTp2MjAw0MgAAAKhG/rBq1SrmcoEsXLgQl2fZSXx8fJUqVRiSjB4eHh8+fEAjAwAAgGrkFSqVatSoUcyF/t61axeEI9vIyspq3rw5czdgcB0KAAAAVCM/yc3Nbd++PUMaQi6XHz9+HMKRVZLRx8eHoe42MDA4duwYGhkAAABUI29JSkpi7kq1mZmZv78/GpklM4SBAwcy1NFisXjNmjVoZAAAAFCNPCc6OtrLy4u5XcuLFy9ixVG35OTkDBkyhKEuFolEM2bMQBcDAACAatQL3r596+7uztyK45kzZ6AqdEVWVtaAAQMY6lyhUDhmzBjE2QEAAADVqEcEBgY6OjoypC2MjY2PHDmCRtaJZGTuLCORjAMHDszJyUE7AwAAgGrUL54/f+7g4MCQwpBKpRs2bMCilDaJj49v1qwZc5Kxd+/eCMwJAAAAqlFPefjwIXMrjmKx+O+//4bO0A7v3r1jLi4jkYx9+vTJyspCOwMAAIBq1F+ePXvGnHAk9OrVKyUlBe3MHGq1+s6dO8xlfyGSsX///sgbCQAAAKoRfH716lWxYsWYE47Vq1cPCQlBOzOBSqX6999/TUxMmLsxPXLkSIVCgaYGAAAA1QjyCA0NLVu2LHPC0cHB4dy5c2hnesnIyBg9ejQRdsxJxqlTp0IyAgAAgGoE/4e4uLh69eoxlHLwS9bBv/76C2fj6OLVq1fVqlVjTujL5fKVK1einQEAAEA1gp+QkpLStWtX5oQjgQhTInfQ1FRQKpVbt261tLRkrpvMzMz279+PpgYAAADVCH6BWpWdFPJn3wpM6kaBhYXFmjVrsO+pGZGRkR07dmRuV5pQxFJ48+gMtSINrQ0AAACqEXwnFpXqlJfK14tyLtfOPmaUdUS+brjE2EDAKN7e3oGBgUghU3BycnL+/fdfW1tbRvulajFh0DpZzlGDnJP2uXd6qCIOqrNj0fgAAACgGvVeLqa/U77xyxOLx03zhML/lOwjBpfmyhytmBWOJiYmM2fOTEvDmtbvIQq7SZMmjB4eIHSvJ4rdJf/WEvKM4VSR3Hu9VFHHPisz0BEAAACgGvVMLObEK9/vyL3eNPuYSfYRw+9UwtfydpO8QVlmZQqhWLFihw4dys3NRb/8lNjY2HHjxhkYMLv2aygTLOwnyTgk/5UxkIlEzilHxeOR6oTbahWSCgIAAIBq5LlaVKrjbyof/ZF9qsivxMF3JXm/fEIHsUTEtHQUNGrU6Pr169iw/pbU1NTly5czl/XxKy42gotzZAU0ibxpxqWqyjfLPmdGoI8AAABANfKO3BRl6KacyzWzjxoXUBx8LVlH5Id8pfYWjAtHqVTarl27R48e6bl2JI+flZW1detWT09PAfO0qSZ6t0VeWKvIk48nbHIf9FPF3fisRrZxAAAAUI08kCBpb5SBf2WfdNBAFnxbiLBoVkkkZF7EiESitm3b3rp1Sz8vWSclJa1bt87d3V0LetHEULBskCTzsJyibeRcqqV8v/OzIhXuBgAAAFQjN/Vi0qPcB/2yj1tS1QT/U9IOyonIMDXUgp4RiMXihg0bHjlyRH/SH0dGRs6cOdPFxUWgFaqXEN73k2UfkdNiG3nb1udKqt4sU+ckwOkAAACAauSMXFQn3s+51TH7mAldevHbKxHPVsnqlhYKtaJshEKhh4fHvHnzwsPDVSp+boPm5ORcu3atV69exsbG2tGLRnLB9G7i1ANyJswj94yzMmjO55x4uB4AAABQjewWjMlPFXe6aXB4sbCLjisGSyxNBFrD0NCwQ4cOhw8fTklJ4Yu0V4eEhMyfP79cuXICLVLHS3TfT8aoeZCSe9pFGbxInZsMBwQAAACqkX1kRSuejMw+bsG0IPhagtbJ2tcQCQVapUiRIgMGDDh79mx2djYXL9qY7/gAAAk7SURBVM2QOkdFRa1evbpBgwZECmuz6YjKJ1o/hYElxl9qR/+SeecdcVcGAAAAVCNbUGap3q7NPmmvNTXw7Y7k8b+lJZ20LB3zMDc39/Hx2bFjx/v379l/byY9Pf3+/ftz5sypXr06o8kAf345XSLo1UD0Yatc+xaSpx2v1FcnPoAnAgAAANWo67WrpCe5VxvkRWA+qrMSv0c+v49WN6y/xcDAoFKlSmPHjj1y5MiHDx/YswCZlZX1+PHjtWvXdu3a1cXFRSgU6qR9apUSXporyzoi16GFZJ+wUAZO+YzE1gAAAKAadYMqV/lmOY1XpCmWsM3yoc3FBjKBDiEKslixYj169PDz87t48WJMTIx2NrLJVyiVyoyMjNevXx84cOCvv/7y9va2sbERi8U6bI1iRYTbxkrTD8rZYB55l6wvVlUnPoRLAgAAANWoXXLiFLc75JMMUFfl2SpZ59oimUTABkQikaura4MGDYYOHbpw4cKDBw/evXs3NDQ0Pj5eYzWpUqnS0tI+fvz48uVLIky3bNkydepUHx+fSpUqWVhYCNiBk7VgyQBJ0j4528wj+4SVKmzjZ2QAAgAAANWoJTLDcy5VY5sg+DaXzO3FsnY1RDrakv0NMpnMysrKycmpTJky9erVa9u2ba9evYisHD9+vK+v77Rp0/75H4gcnDRp0qhRowYOHEh0YbNmzapXr+7p6Wlvb29qaqr944kFwcZMMK+PJHqHnLXmkX3MSPnyH1yRAQAAANXIOOqsj7kXKrJWE3yzIym/t1TWtY5ILhUALeBqK1jYTxK7S559RM562zDIE46fseIIAAAAqpFBzajIvdGC/ZLx2/J4uWxIM7GZEXQdU5QtKlzzhyRut5xDVpF9zEgVsR/uCQAAAFQjUyjfrtXtdWmN15beb5XP6C5xsYHGow2JWOBdXnR0ijT1gJxzJpEXkeeM8+esj/BQAAAAoBoZWGfMScw9585FffC1EH2zd6K0cXlsW1PCwVIwqrX4yUoZp42BFOXzyfBQAAAAoBrpRxW+j4WXpjW5LnNY/myVzLez2NVWCAlYcMSivMXF7eOkn3bJeWAGecuN5zzUualwUgAAAKAaaUbxcBA/tMLXbeu0g/KzM6R9G4tszaAJ89uJLu8mnNNb8maDPOuInGc2oEq4CycFAAAAqpFmcq824pNi+LbE7pYf9JX2bCCyM4dK/N+VxYoewundxPeWyjIPy/na9aoPe+CkAAAAQDXSilqde6U+X6XD15WnuN3y09OlI1qJ3eyEIr3cvpZLBQ3Kihb3lzxbJWNJWheGVeMuOCkAAABQjXSvNd7rxXsN8W2o8McrZH4DJS2r8H8BUiYRlHIWDm0uPugrZXOAbiaKOu4anBQAAACoRppRhm3VKz3xv/vXu+TXFsjm95W0qipysOCJUpSKBWVdhYObibePk75aqxfLij8pp50+5yTCSQEAAIBqpBl1TlLu+XL6KRy/5ptJPSB/sUb275i8Xew6XkIr0zz5xQkMZQI3O2H7GqKZPSRnZ+StKWYckut3bxoog+bAQwEAAIBqZEY4poXkXmvMxUDfDJWU/fKnK2UHfaWzekp61BdV9hQ6WrFCR5oaCjwdhI3KiYi6XTVUcmGO7N0Wvt2ApiQZT1gpX878rM6FhwIAAADVyBiqHNXHU4rbHbKPmUI+/ngaMmGPnOizawtkO8dL5/eRDG8pbltdVL24sKid0FAmoPGCDfkokVBgZSrwchY2KCsimnVSpzyBeGyqlAjZqO15y6LooB/XF3PPFlU+91WnvYFvAgAAANWoLXISVBGHFI9H5lyqlnPSHgKlIBvccbvlIRvlD/xkF2ZLD/8lJcpy/Qip3xCTeYNsZw0sOn1IRd/hLXzHD/xr0ijfMd3/HtZgxqCSswY6LhxouXKo4ZbR0r0TpSenSa8vkD1bJQv/V552AGuHBWj24yZEKSputFAGzVcn3PmsVsIrAQAAgGrUEWr15+xP6oS7ynfblIFTFHd9FJdr5Jx2yj5mpO965ZhJzqkiueeK51yoknutYc6t9rkP+iufTVAGzVOFbVRFHlbFXlUnP/+c8f5zTvxn1S92SxXp6qyP6rQQdeIDVYy/Kny38s0K5ct/FI+GK+70UNxskXOlTu6F8jln3LJP2GQfM9R3mXjCIvdcydxrjRUPBymDFqiijqtTg9SKdHgiAAAAUI3s1JHKz8pMdU68OjkwT+i836kMXqJ4NknxoH+ecrpSP+9WzRnn7JO22Sesso+bZx83zT5qrHPFk32E6DyjvJqQ+hwzyz5hkUOqd9Ka1DPnlGOuf/HcCxVziUS71kRxu4PiXk/FwyGKp2OUL6YrXy9Shq5Xfdilijqh+nRZlfhAnRZMpN5nRepnZYZamc3w+pZaTRSnMovoy8+5SeqMD6TZ1Qm31TEBecL0/TbV21XKV3OUz30VT0YqH/TPk/U3W+Wp2IvVc8+XIXIz55QDUZw55EmPW+Z1B3n2YyZfekS3OST/f48cNyFVyiF1y+sL+5wzHjkXqyquN1Pc6aZ4NEz5coYqdK0q4qA67oY6PYy0+X8NrobrAQAAANXII4jWISonM1Kd9kad/FydeF8Ve00VfU4VdUwVvk/5focydKPy7Wrlm2V5sixorvLlTOWLacoXf+cJoOeTcp9N+FKUzyYQ9ZYn4J6N+5+/+VMZ6KsM/Cvv51/+oyC/SH799UJl8FJVyErl27WqsE2q99uVH/aoIg7lSb0Yf3XsVVX8bXXSozzJlfbmM9FeRPblJKgVaZ/VCj3oi+zPihR1duxn0h3pYXnrc8nPSI+o42+qP11SRZ/J65SIA8r3u1Tv/lWGblCGkH5ZrgxerHw9P0+SvpypeDFNETj1+675r19I+aaz/k/XKF/NVgbNJ5MKVciKvH55t1X1Ybcq8pDq40lVzAVV3M28Hkl5+TnjnTor5rMynUhkvDcAAACgGgEAAAAAAFQjAAAAAAAAUI0AAAAAAACqEQAAAAAAQDUCAAAAAACoRgAAAAAAANUIAAAAAACgGgEAAAAAAFQjAAAAAAAAUI0AAAAAAACqEQAAAAAAQDUCAAAAAACoRgAAAAAAANUIAAAAAACgGgEAAAAAAFQjAAAAAACAagQAAAAAAACqEQAAAAAAQDUCAAAAAACm+H9f4CUvyzKj7AAAAABJRU5ErkJggg==;" vertex="1" parent="1">
          <mxGeometry x="-431" y="478" width="325.06" height="156" as="geometry" />
        </mxCell>
        <mxCell id="KjAqN9CNKyvdz0GDKxtC-8" value="" style="verticalLabelPosition=bottom;verticalAlign=top;html=1;shape=mxgraph.basic.x;fillColor=#141414;" vertex="1" parent="1">
          <mxGeometry x="-512" y="529.5" width="68" height="58" as="geometry" />
        </mxCell>
      </root>
    </mxGraphModel>
  </diagram>
</mxfile>
